%FSTAX23Y23*%
%MOIN*%
%SFA1B1*%

%IPPOS*%
%ADD52C,0.040000*%
%ADD53C,0.075433*%
%ADD54C,0.080157*%
%ADD55C,0.068000*%
G54D52*
X-0119Y-0034D02*
Y0034D01*
X-006Y00681*
X-00009Y0034*
X00581Y00681*
X01171Y0034*
Y-0034D02*
Y0034D01*
X00581Y-00681D02*
X01171Y-0034D01*
X-00009D02*
X00581Y-00681D01*
X-006D02*
X-00009Y-0034D01*
X-0119D02*
X-006Y-00681D01*
G54D53*
X-00918Y00086D03*
X-0082D03*
G54D54*
X-00508Y-00366D03*
X-00608D03*
X-00708D03*
G54D55*
X-00681Y-00054D03*
X00632Y00313D03*
X00631Y0023D03*
X00698Y0036D03*
X0069Y00274D03*
X00424Y-0028D03*
X00404Y-00347D03*
X-00465Y00315D03*
X-01017Y00004D03*
X-00869Y00347D03*
X-0078Y00434D03*
X-00434Y00412D03*
X00232Y00312D03*
X-00345Y-00352D03*
X-00221Y-0035D03*
X-007Y-00494D03*
X-00918Y00255D03*
X01092Y00062D03*
X-00252Y00191D03*
X-01118Y00152D03*
X00809Y00161D03*
X-00834Y-00044D03*
X00164Y00079D03*
X00374Y0015D03*
X00602Y00034D03*
X-00817Y-0013D03*
X-00081Y-00123D03*
X00517Y00051D03*
X00819Y-00006D03*
X00299Y-00259D03*
X00493Y-00508D03*
X00832Y-00187D03*
X-0012Y00129D03*
X00353Y-00297D03*
X00433Y-00147D03*
X00874Y-00443D03*
X0101Y00211D03*
X00113Y00209D03*
X00514Y0013D03*
X00086Y00041D03*
X00655Y0D03*
X0011Y-00271D03*
X00673Y0007D03*
X00468Y-00204D03*
X00987Y00294D03*
X-00341Y-00142D03*
X00171Y-0004D03*
X-00923Y-00066D03*
X00569Y00114D03*
X-00998Y-00133D03*
X00739Y-00418D03*
X0069Y00156D03*
X00578Y-00317D03*
X00777Y-00042D03*
X00574Y-0054D03*
X00723D03*
X00028Y00135D03*
X00796Y00107D03*
X00834Y-00345D03*
X00994Y-0005D03*
X00686Y-00339D03*
X00949Y00109D03*
X00837Y00459D03*
X-00511Y00475D03*
X-00417Y-00126D03*
X-00692Y00512D03*
M02*