%FSTAX23Y23*%
%MOIN*%
%SFA1B1*%

%IPPOS*%
%AMD40*
4,1,8,-0.011800,0.020500,-0.011800,0.020500,-0.020500,-0.011800,-0.020500,-0.011800,0.011900,-0.020500,0.011900,-0.020500,0.020500,0.011800,0.020500,0.011800,-0.011800,0.020500,0.0*
1,1,0.047370,0.000000,0.000000*
1,1,0.047370,0.000000,0.000000*
1,1,0.047370,0.000000,0.000000*
1,1,0.047370,0.000000,0.000000*
%
%AMD41*
4,1,8,-0.023700,0.000000,-0.023700,0.000000,0.000000,-0.023700,0.000000,-0.023700,0.023700,0.000000,0.023700,0.000000,0.000000,0.023700,0.000000,0.023700,-0.023700,0.000000,0.0*
1,1,0.047370,0.000000,0.000000*
1,1,0.047370,0.000000,0.000000*
1,1,0.047370,0.000000,0.000000*
1,1,0.047370,0.000000,0.000000*
%
%AMD42*
4,1,8,0.011900,0.020500,0.011900,0.020500,-0.020500,0.011800,-0.020500,0.011800,-0.011900,-0.020500,-0.011900,-0.020500,0.020500,-0.011900,0.020500,-0.011900,0.011900,0.020500,0.0*
1,1,0.047370,0.000000,0.000000*
1,1,0.047370,0.000000,0.000000*
1,1,0.047370,0.000000,0.000000*
1,1,0.047370,0.000000,0.000000*
%
%ADD23R,0.022000X0.052000*%
%ADD26R,0.045716X0.010661*%
%ADD32R,0.031496X0.031496*%
%ADD33R,0.063118X0.031622*%
%ADD34R,0.024016X0.025984*%
%ADD35R,0.048000X0.063000*%
%ADD36R,0.031496X0.024016*%
%ADD37R,0.023748X0.082803*%
%ADD38R,0.038976X0.029134*%
%ADD39R,0.045401X0.039496*%
G04~CAMADD=40~8~0.0~0.0~473.7~473.7~236.9~0.0~15~0.0~0.0~0.0~0.0~0~0.0~0.0~0.0~0.0~0~0.0~0.0~0.0~30.0~474.0~473.0*
%ADD40D40*%
G04~CAMADD=41~8~0.0~0.0~473.7~473.7~236.9~0.0~15~0.0~0.0~0.0~0.0~0~0.0~0.0~0.0~0.0~0~0.0~0.0~0.0~90.0~474.0~473.0*
%ADD41D41*%
G04~CAMADD=42~8~0.0~0.0~473.7~473.7~236.9~0.0~15~0.0~0.0~0.0~0.0~0~0.0~0.0~0.0~0.0~0~0.0~0.0~0.0~330.0~474.0~473.0*
%ADD42D42*%
%ADD43C,0.063118*%
%ADD44R,0.063118X0.063118*%
%ADD45C,0.061811*%
%ADD46R,0.061811X0.061811*%
%ADD47C,0.058000*%
G36*
X00604Y00755D02*
X00619Y00749D01*
X00632Y00739*
X00643Y00728*
X00651Y00714*
X00656Y00699*
X00658Y00683*
X00657Y00667*
X00652Y00652*
X00648Y00645*
X00581Y00684*
X00645Y00647*
X00642Y00641*
X00633Y00631*
X00624Y00622*
X00612Y00615*
X006Y00611*
X00587Y00608*
X00574*
X00561Y00611*
X00549Y00615*
X00538Y00622*
X00528Y00631*
X0052Y00641*
X00516Y00647*
X00513Y00645*
X00509Y00652*
X00505Y00667*
X00503Y00683*
X00505Y00699*
X0051Y00714*
X00519Y00728*
X00529Y00739*
X00542Y00749*
X00557Y00755*
X00573Y00758*
X00589*
X00604Y00755*
G37*
G36*
X-00576D02*
X-00561Y00749D01*
X-00548Y00739*
X-00537Y00728*
X-00529Y00714*
X-00524Y00699*
X-00522Y00683*
X-00523Y00667*
X-00528Y00652*
X-00532Y00645*
X-006Y00684*
X-00535Y00647*
X-00538Y00641*
X-00547Y00631*
X-00557Y00622*
X-00568Y00615*
X-0058Y00611*
X-00593Y00608*
X-00606*
X-00619Y00611*
X-00631Y00615*
X-00643Y00622*
X-00652Y00631*
X-00661Y00641*
X-00664Y00647*
X-00667Y00645*
X-00671Y00652*
X-00676Y00667*
X-00677Y00683*
X-00675Y00699*
X-0067Y00714*
X-00662Y00728*
X-00651Y00739*
X-00638Y00749*
X-00623Y00755*
X-00607Y00758*
X-00592*
X-00576Y00755*
G37*
G36*
X-00363Y00547D02*
X-00363Y00547D01*
X-00303Y00513*
X-00244Y00478*
X-00244Y00478*
X-00244Y00478*
X-00247Y00472*
X-00256Y00462*
X-00267Y00453*
X-00279Y00447*
X-00292Y00443*
X-00306Y00442*
X-0032Y00443*
X-00333Y00448*
X-00339Y00451*
X-00345Y00455*
X-00355Y00464*
X-00363Y00475*
X-00369Y00487*
X-00373Y00501*
X-00374Y00515*
X-00371Y00528*
X-00367Y00541*
X-00363Y00547*
X-00363Y00547*
G37*
G36*
X-00833Y00541D02*
X-00828Y00528D01*
X-00826Y00515*
X-00826Y00501*
X-0083Y00487*
X-00836Y00475*
X-00844Y00464*
X-00854Y00455*
X-00866Y00448*
X-00879Y00443*
X-00893Y00442*
X-00907Y00443*
X-0092Y00447*
X-00932Y00453*
X-00943Y00462*
X-00952Y00472*
X-00955Y00478*
X-00836Y00547*
X-00833Y00541*
G37*
G36*
X-01124Y00381D02*
D01*
G37*
G36*
X-01121Y00375D02*
X-01116Y00362D01*
X-01113Y00348*
X-01113Y00335*
X-01115Y00321*
X-0112Y00308*
X-01127Y00296*
X-01136Y00285*
X-01146Y00277*
X-01159Y0027*
X-01172Y00265*
X-01185Y00263*
X-01192Y00264*
X-01192Y00267*
X-01192*
X-01192Y00342*
X-01128Y00379*
X-01128Y00379*
X-01124Y00381*
X-01121Y00375*
G37*
G36*
X01109Y00379D02*
X01109Y00379D01*
X01173Y00342*
X01173Y00267*
X01173Y00267*
Y00264*
X01166Y00264*
X01153Y00266*
X0114Y0027*
X01128Y00277*
X01117Y00286*
X01108Y00296*
X01101Y00308*
X01096Y00321*
X01094Y00335*
X01094Y00348*
X01097Y00362*
X01102Y00375*
X01105Y00381*
X01109Y00379*
G37*
G36*
X-00009Y00343D02*
X00056Y00381D01*
X00059Y00375*
X00064Y00362*
X00067Y00348*
X00067Y00335*
X00065Y00321*
X0006Y00308*
X00053Y00296*
X00044Y00286*
X00034Y00277*
X00022Y0027*
X00009Y00266*
X-00004Y00264*
X-00009Y00264*
X-00014Y00264*
X-00027Y00266*
X-00041Y0027*
X-00053Y00277*
X-00063Y00286*
X-00072Y00296*
X-00079Y00308*
X-00084Y00321*
X-00086Y00335*
X-00086Y00348*
X-00083Y00362*
X-00078Y00375*
X-00075Y00381*
X-00009Y00343*
G37*
G36*
X-01171Y00066D02*
X-01159Y00061D01*
X-01147Y00054*
X-01137Y00044*
X-01129Y00033*
X-01124Y0002*
X-01121Y00006*
Y-00006*
X-01124Y-0002*
X-01129Y-00033*
X-01137Y-00044*
X-01147Y-00054*
X-01159Y-00061*
X-01171Y-00066*
X-01172Y-00066*
X-01172Y-00066*
X-01185Y-00069*
X-01192Y-00068*
X-01192Y00068*
X-01192Y00068*
Y00068*
X-01185Y00069*
X-01171Y00066*
G37*
G36*
X00009Y-00266D02*
X00022Y-0027D01*
X00034Y-00277*
X00044Y-00286*
X00053Y-00296*
X0006Y-00308*
X00065Y-00321*
X00067Y-00335*
X00067Y-00348*
X00064Y-00362*
X00059Y-00375*
X00056Y-00381*
X-00009Y-00343*
X-00075Y-00381*
X-00078Y-00375*
X-00083Y-00362*
X-00086Y-00348*
X-00086Y-00335*
X-00084Y-00321*
X-00079Y-00308*
X-00072Y-00296*
X-00063Y-00286*
X-00053Y-00277*
X-00041Y-0027*
X-00027Y-00266*
X-00014Y-00264*
X-00009Y-00264*
X-00004Y-00264*
X00009Y-00266*
G37*
G36*
X01173Y-00264D02*
Y-00267D01*
X01173Y-00267*
X01173Y-00342*
X01109Y-00379*
X01109Y-00379*
X01105Y-00381*
X01102Y-00375*
X01097Y-00362*
X01094Y-00348*
X01094Y-00335*
X01096Y-00321*
X01101Y-00308*
X01108Y-00296*
X01117Y-00286*
X01128Y-00277*
X0114Y-0027*
X01153Y-00266*
X01166Y-00264*
X01173Y-00264*
G37*
G36*
X00056Y-00381D02*
D01*
G37*
G36*
X-01192Y-00267D02*
X-01186Y-00267D01*
X-01173Y-00269*
X-0116Y-00274*
X-01149Y-0028*
X-01139Y-00288*
X-0113Y-00298*
X-01124Y-0031*
X-01119Y-00322*
X-01117Y-00335*
X-01117Y-00348*
X-0112Y-00361*
X-01124Y-00373*
X-01128Y-00379*
X-01124Y-00381*
X-01129Y-00387*
X-0114Y-00399*
X-01153Y-00408*
X-01167Y-00414*
X-01183Y-00418*
X-01199Y-00417*
X-01215Y-00414*
X-01229Y-00407*
X-01242Y-00398*
X-01253Y-00386*
X-01261Y-00372*
X-01266Y-00357*
X-01268Y-00341*
X-01266Y-00325*
X-01261Y-0031*
X-01253Y-00296*
X-01243Y-00284*
X-0123Y-00274*
X-01216Y-00267*
X-012Y-00264*
X-01192Y-00264*
X-01192Y-00267*
G37*
G36*
X-00292Y-00443D02*
X-00279Y-00447D01*
X-00267Y-00453*
X-00256Y-00462*
X-00247Y-00472*
X-00244Y-00478*
X-00303Y-00513*
X-00363Y-00547*
X-00366Y-00541*
X-00371Y-00528*
X-00373Y-00515*
X-00373Y-00501*
X-00369Y-00487*
X-00363Y-00475*
X-00355Y-00464*
X-00345Y-00455*
X-00333Y-00448*
X-0032Y-00443*
X-00306Y-00442*
X-00292Y-00443*
G37*
G36*
X-00879Y-00443D02*
X-00866Y-00448D01*
X-0086Y-00451*
X-00854Y-00455*
X-00844Y-00464*
X-00836Y-00475*
X-0083Y-00487*
X-00826Y-00501*
X-00825Y-00515*
X-00828Y-00528*
X-00832Y-00541*
X-00836Y-00547*
X-00836Y-00547*
X-00836Y-00547*
X-00896Y-00513*
X-00955Y-00478*
X-00955Y-00478*
X-00955Y-00478*
X-00952Y-00472*
X-00943Y-00462*
X-00932Y-00453*
X-0092Y-00447*
X-00907Y-00443*
X-00893Y-00442*
X-00879Y-00443*
G37*
G36*
X006Y-00611D02*
X00612Y-00615D01*
X00624Y-00622*
X00633Y-00631*
X00642Y-00641*
X00645Y-00647*
X00581Y-00684*
X00516Y-00647*
X0052Y-00641*
X00528Y-00631*
X00538Y-00622*
X00549Y-00615*
X00561Y-00611*
X00574Y-00608*
X00587*
X006Y-00611*
G37*
G36*
X-0058D02*
X-00568Y-00615D01*
X-00557Y-00622*
X-00547Y-00631*
X-00538Y-00641*
X-00535Y-00647*
X-006Y-00684*
X-00664Y-00647*
X-00661Y-00641*
X-00652Y-00631*
X-00643Y-00622*
X-00631Y-00615*
X-00619Y-00611*
X-00606Y-00608*
X-00593*
X-0058Y-00611*
G37*
G54D23*
X00764Y-00177D03*
X0039Y-00142D03*
X01074Y-00123D03*
G54D26*
X0046Y00053D03*
Y00309D03*
Y00079D03*
X00742Y00156D03*
Y00028D03*
Y00233D03*
Y00079D03*
Y00105D03*
Y00053D03*
Y00258D03*
Y00284D03*
Y0013D03*
Y00309D03*
Y00207D03*
Y00181D03*
X0046Y00028D03*
Y00105D03*
Y0013D03*
Y00156D03*
Y00181D03*
Y00207D03*
Y00233D03*
Y00258D03*
Y00284D03*
G54D32*
X-00389Y-00069D03*
Y-0001D03*
G54D33*
X00026Y00093D03*
Y00019D03*
X-00071D03*
Y00056D03*
Y00093D03*
G54D34*
X00894Y00417D03*
X00859D03*
X00303Y00082D03*
X00268D03*
X00272Y00312D03*
X00856Y00323D03*
X00821D03*
X00307Y00312D03*
G54D35*
X00299Y-00317D03*
X00261Y-00404D03*
X00336D03*
X00556Y-00172D03*
X00518Y-00259D03*
X00593D03*
X00506Y-00354D03*
X00933Y-00241D03*
X00685Y-00396D03*
X00648Y-00482D03*
X00723D03*
X00543Y-00441D03*
X00192Y-00139D03*
X00154Y-00225D03*
X00229D03*
X00895Y-00328D03*
X00468Y-00441D03*
X0097Y-00328D03*
G54D36*
X00268Y00194D03*
Y00159D03*
X00322Y00192D03*
Y00157D03*
X002Y00199D03*
Y00164D03*
X01068Y00136D03*
X00924Y00354D03*
X00916Y00072D03*
X00667Y-0012D03*
Y-00084D03*
X00496Y-00067D03*
X00928Y-00092D03*
Y-00128D03*
X00991Y00067D03*
X0081Y-00454D03*
X01068Y00172D03*
X00405Y-00387D03*
X00156Y-00321D03*
X0081Y-00418D03*
X00835Y00218D03*
X01056Y00259D03*
X00496Y-00103D03*
X00405Y-00423D03*
X00991Y00032D03*
X00156Y-00356D03*
X00896Y00188D03*
X0085Y00034D03*
X00916Y00036D03*
X00835Y00254D03*
X-00223Y-00072D03*
Y-00037D03*
X0085Y00069D03*
X00896Y00224D03*
X-00374Y-00191D03*
Y-00227D03*
X00924Y00318D03*
X01056Y00294D03*
G54D37*
X00303Y-00002D03*
X00256D03*
X00209D03*
G54D38*
X-00321Y00068D03*
Y00123D03*
G54D39*
X-00319Y-0002D03*
Y-00069D03*
G54D40*
X01144Y00325D03*
X-01163Y-00325D03*
X-00881Y-00487D03*
X-00318Y00487D03*
G54D41*
X00581Y0065D03*
Y-0065D03*
X-00006Y00305D03*
X-006Y0065D03*
X-00006Y-00305D03*
X-006Y-0065D03*
X-00318Y-00487D03*
X-00881Y00487D03*
G54D42*
X01144Y-00325D03*
X-01163Y00325D03*
X-01163Y0D03*
G54D43*
X-00918Y00086D03*
G54D44*
X-0082Y00086D03*
G54D45*
X-00508Y-00366D03*
X-00608D03*
G54D46*
X-00708Y-00366D03*
G54D47*
X-00681Y-00054D03*
X00632Y00313D03*
X00631Y0023D03*
X00698Y0036D03*
X0069Y00274D03*
X00424Y-0028D03*
X00404Y-00347D03*
X-00465Y00315D03*
X-01017Y00004D03*
X-00869Y00347D03*
X-0078Y00434D03*
X-00434Y00412D03*
X00232Y00312D03*
X-00345Y-00352D03*
X-00221Y-0035D03*
X-007Y-00494D03*
X-00918Y00255D03*
X01092Y00062D03*
X-00252Y00191D03*
X-01118Y00152D03*
X00809Y00161D03*
X-00834Y-00044D03*
X00164Y00079D03*
X00374Y0015D03*
X00602Y00034D03*
X-00817Y-0013D03*
X-00081Y-00123D03*
X00517Y00051D03*
X00819Y-00006D03*
X00299Y-00259D03*
X00493Y-00508D03*
X00832Y-00187D03*
X-0012Y00129D03*
X00353Y-00297D03*
X00433Y-00147D03*
X00874Y-00443D03*
X0101Y00211D03*
X00113Y00209D03*
X00514Y0013D03*
X00086Y00041D03*
X00655Y0D03*
X0011Y-00271D03*
X00673Y0007D03*
X00468Y-00204D03*
X00987Y00294D03*
X-00341Y-00142D03*
X00171Y-0004D03*
X-00923Y-00066D03*
X00569Y00114D03*
X-00998Y-00133D03*
X00739Y-00418D03*
X0069Y00156D03*
X00578Y-00317D03*
X00777Y-00042D03*
X00574Y-0054D03*
X00723D03*
X00028Y00135D03*
X00796Y00107D03*
X00834Y-00345D03*
X00994Y-0005D03*
X00686Y-00339D03*
X00949Y00109D03*
X00837Y00459D03*
X-00511Y00475D03*
X-00417Y-00126D03*
X-00692Y00512D03*
M02*