%FSTAX23Y23*%
%MOIN*%
%SFA1B1*%

%IPPOS*%
%AMD29*
4,1,8,-0.009800,0.017100,-0.009800,0.017100,-0.017100,-0.009800,-0.017100,-0.009800,0.009900,-0.017100,0.009900,-0.017100,0.017100,0.009800,0.017100,0.009800,-0.009800,0.017100,0.0*
1,1,0.039370,0.000000,0.000000*
1,1,0.039370,0.000000,0.000000*
1,1,0.039370,0.000000,0.000000*
1,1,0.039370,0.000000,0.000000*
%
%AMD30*
4,1,8,-0.019700,0.000000,-0.019700,0.000000,0.000000,-0.019700,0.000000,-0.019700,0.019700,0.000000,0.019700,0.000000,0.000000,0.019700,0.000000,0.019700,-0.019700,0.000000,0.0*
1,1,0.039370,0.000000,0.000000*
1,1,0.039370,0.000000,0.000000*
1,1,0.039370,0.000000,0.000000*
1,1,0.039370,0.000000,0.000000*
%
%AMD31*
4,1,8,0.009900,0.017100,0.009900,0.017100,-0.017100,0.009800,-0.017100,0.009800,-0.009900,-0.017100,-0.009900,-0.017100,0.017100,-0.009900,0.017100,-0.009900,0.009900,0.017100,0.0*
1,1,0.039370,0.000000,0.000000*
1,1,0.039370,0.000000,0.000000*
1,1,0.039370,0.000000,0.000000*
1,1,0.039370,0.000000,0.000000*
%
%ADD27R,0.035039X0.025197*%
G04~CAMADD=29~8~0.0~0.0~393.7~393.7~196.9~0.0~15~0.0~0.0~0.0~0.0~0~0.0~0.0~0.0~0.0~0~0.0~0.0~0.0~30.0~392.0~392.0*
%ADD29D29*%
G04~CAMADD=30~8~0.0~0.0~393.7~393.7~196.9~0.0~15~0.0~0.0~0.0~0.0~0~0.0~0.0~0.0~0.0~0~0.0~0.0~0.0~90.0~394.0~393.0*
%ADD30D30*%
G04~CAMADD=31~8~0.0~0.0~393.7~393.7~196.9~0.0~15~0.0~0.0~0.0~0.0~0~0.0~0.0~0.0~0.0~0~0.0~0.0~0.0~330.0~392.0~392.0*
%ADD31D31*%
%ADD45C,0.061811*%
%ADD46R,0.061811X0.061811*%
%ADD48C,0.011811*%
%ADD49C,0.055118*%
%ADD50R,0.055118X0.055118*%
%ADD51C,0.050000*%
%ADD56R,0.015752X0.074803*%
%ADD57R,0.031496X0.037401*%
%ADD58R,0.019685X0.035433*%
%ADD59R,0.224409X0.224409*%
%ADD60R,0.023622X0.031496*%
%ADD61R,0.011811X0.033465*%
%ADD62R,0.055000X0.043000*%
%ADD63R,0.033465X0.011811*%
G36*
X-01192Y-00263D02*
X-01185Y-00263D01*
X-01171Y-00265*
X-01158Y-0027*
X-01146Y-00277*
X-01136Y-00285*
X-01127Y-00296*
X-0112Y-00308*
X-01115Y-00321*
X-01113Y-00334*
X-01113Y-00348*
X-01116Y-00362*
X-01121Y-00375*
X-01124Y-0038*
X-01192Y-00341*
X-01192Y-00263*
G37*
G36*
X-00989Y-00459D02*
X-00985Y-00451D01*
X-00975Y-00437*
X-00962Y-00426*
X-00948Y-00416*
X-00932Y-00409*
X-00915Y-00404*
X-00898Y-00402*
X-00881Y-00403*
X-00864Y-00407*
X-00848Y-00413*
X-00833Y-00422*
X-0082Y-00432*
X-00808Y-00445*
X-00799Y-0046*
X-00792Y-00476*
X-00788Y-00492*
X-00786Y-0051*
X-00787Y-00527*
X-00791Y-00544*
X-00797Y-0056*
X-00802Y-00567*
X-00989Y-00459*
G37*
G36*
X-00667Y-00644D02*
X-00664Y-00638D01*
X-00655Y-00628*
X-00645Y-00619*
X-00633Y-00612*
X-0062Y-00607*
X-00606Y-00604*
X-00593Y-00604*
X-00579Y-00607*
X-00566Y-00612*
X-00554Y-00619*
X-00544Y-00628*
X-00535Y-00639*
X-00532Y-00645*
X-006Y-00684*
X-00667Y-00644*
G37*
G36*
X-00397Y-00567D02*
X-00402Y-00559D01*
X-00408Y-00543*
X-00412Y-00527*
X-00413Y-00509*
X-00411Y-00492*
X-00407Y-00475*
X-004Y-0046*
X-00391Y-00445*
X-00379Y-00432*
X-00366Y-00421*
X-00351Y-00413*
X-00335Y-00407*
X-00318Y-00403*
X-00301Y-00402*
X-00284Y-00404*
X-00267Y-00409*
X-00251Y-00416*
X-00237Y-00426*
X-00224Y-00437*
X-00214Y-00451*
X-00209Y-00459*
X-00397Y-00567*
G37*
G36*
X-01192Y00108D02*
X-01184Y00108D01*
X-01166Y00105*
X-0115Y001*
X-01135Y00093*
X-0112Y00083*
X-01108Y00071*
X-01098Y00057*
X-0109Y00041*
X-01085Y00025*
X-01082Y00008*
X-01082Y-00008*
X-01085Y-00025*
X-0109Y-00042*
X-01098Y-00057*
X-01108Y-00071*
X-01121Y-00083*
X-01135Y-00093*
X-0115Y-00101*
X-01167Y-00106*
X-01184Y-00108*
X-01192Y-00108*
X-01192Y00108*
G37*
G36*
X-01124Y00381D02*
X-01121Y00375D01*
X-01116Y00362*
X-01113Y00348*
X-01113Y00335*
X-01115Y00321*
X-0112Y00308*
X-01127Y00296*
X-01136Y00286*
X-01146Y00277*
X-01158Y0027*
X-01171Y00266*
X-01185Y00264*
X-01192Y00264*
Y00342*
X-01124Y00381*
G37*
G36*
X-00802Y00567D02*
X-00798Y00559D01*
X-00791Y00543*
X-00787Y00527*
X-00786Y00509*
X-00788Y00492*
X-00792Y00475*
X-00799Y0046*
X-00808Y00445*
X-0082Y00432*
X-00833Y00421*
X-00848Y00413*
X-00864Y00407*
X-00881Y00403*
X-00898Y00402*
X-00915Y00404*
X-00932Y00409*
X-00948Y00416*
X-00962Y00426*
X-00975Y00437*
X-00985Y00451*
X-0099Y00459*
X-00802Y00567*
G37*
G36*
X-00532Y00644D02*
X-00535Y00638D01*
X-00544Y00628*
X-00554Y00619*
X-00566Y00612*
X-00579Y00607*
X-00593Y00604*
X-00606Y00604*
X-0062Y00607*
X-00633Y00612*
X-00645Y00619*
X-00655Y00628*
X-00664Y00639*
X-00667Y00645*
X-00599Y00684*
X-00532Y00644*
G37*
G36*
X-0021Y00459D02*
X-00214Y00451D01*
X-00224Y00437*
X-00237Y00426*
X-00251Y00416*
X-00267Y00409*
X-00284Y00404*
X-00301Y00402*
X-00318Y00403*
X-00335Y00407*
X-00351Y00413*
X-00366Y00422*
X-00379Y00432*
X-00391Y00445*
X-004Y0046*
X-00407Y00476*
X-00411Y00492*
X-00413Y0051*
X-00412Y00527*
X-00408Y00544*
X-00402Y0056*
X-00397Y00567*
X-0021Y00459*
G37*
G36*
X00648Y00644D02*
X00645Y00638D01*
X00636Y00628*
X00626Y00619*
X00614Y00612*
X00601Y00607*
X00588Y00604*
X00574Y00604*
X0056Y00607*
X00547Y00612*
X00535Y00619*
X00525Y00628*
X00516Y00639*
X00513Y00645*
X00581Y00684*
X00648Y00644*
G37*
G36*
X00451Y00584D02*
Y00578D01*
X00493Y0055*
X00494Y00543*
X00399Y00448*
X00307Y00436*
X00301Y00442*
Y00447*
X00296*
X00263Y0048*
X00264Y00488*
X00444Y00588*
X00451Y00584*
G37*
G36*
X-00009Y00343D02*
X00056Y00381D01*
X00059Y00375*
X00064Y00362*
X00067Y00348*
X00067Y00335*
X00065Y00321*
X0006Y00308*
X00053Y00296*
X00044Y00286*
X00034Y00277*
X00022Y0027*
X00009Y00266*
X-00004Y00264*
X-00009Y00264*
X-00014Y00264*
X-00027Y00266*
X-00041Y0027*
X-00053Y00277*
X-00063Y00286*
X-00072Y00296*
X-00079Y00308*
X-00084Y00321*
X-00086Y00335*
X-00086Y00348*
X-00083Y00362*
X-00078Y00375*
X-00075Y00381*
X-00009Y00343*
G37*
G36*
X01173Y00341D02*
X01173Y00263D01*
X01166Y00263*
X01153Y00265*
X0114Y0027*
X01128Y00277*
X01117Y00285*
X01108Y00296*
X01101Y00308*
X01097Y00321*
X01094Y00334*
X01094Y00348*
X01097Y00362*
X01102Y00375*
X01106Y0038*
X01173Y00341*
G37*
G36*
X00009Y-00266D02*
X00022Y-0027D01*
X00034Y-00277*
X00044Y-00286*
X00053Y-00296*
X0006Y-00308*
X00065Y-00321*
X00067Y-00335*
X00067Y-00348*
X00064Y-00362*
X00059Y-00375*
X00056Y-00381*
X-00009Y-00343*
X-00075Y-00381*
X-00078Y-00375*
X-00083Y-00362*
X-00086Y-00348*
X-00086Y-00335*
X-00084Y-00321*
X-00079Y-00308*
X-00072Y-00296*
X-00063Y-00286*
X-00053Y-00277*
X-00041Y-0027*
X-00027Y-00266*
X-00014Y-00264*
X-00009Y-00264*
X-00004Y-00264*
X00009Y-00266*
G37*
G36*
X01173Y-00264D02*
D01*
Y-00342*
X01105Y-00381*
X01102Y-00375*
X01097Y-00362*
X01094Y-00348*
X01094Y-00335*
X01096Y-00321*
X01101Y-00308*
X01108Y-00296*
X01117Y-00286*
X01128Y-00277*
X0114Y-0027*
X01153Y-00266*
X01166Y-00264*
X01173Y-00264*
G37*
G36*
X00056Y-00381D02*
D01*
G37*
G36*
X00587Y-00604D02*
X00601Y-00607D01*
X00614Y-00612*
X00626Y-00619*
X00636Y-00628*
X00645Y-00639*
X00648Y-00645*
X00581Y-00684*
X00513Y-00644*
X00516Y-00638*
X00525Y-00628*
X00535Y-00619*
X00547Y-00612*
X0056Y-00607*
X00574Y-00604*
X00587Y-00604*
G37*
G36*
X00267Y00416D02*
X00264D01*
Y00436*
X00251Y00416*
X00248*
Y00441*
X00251*
Y00422*
X00264Y00441*
X00267*
Y00416*
G37*
G36*
X00284Y00442D02*
X00284Y00442D01*
X00285Y00442*
X00286Y00441*
X00286Y00441*
X00287Y00441*
X00287Y00441*
X00288Y00441*
X00288Y00441*
X00289Y00441*
X00289Y00441*
X00289Y0044*
X00289Y0044*
X0029Y0044*
X0029Y0044*
X0029Y0044*
X0029Y0044*
X00291Y0044*
X00291Y00439*
X00292Y00439*
X00292Y00438*
X00292Y00438*
X00293Y00438*
X00293Y00437*
X00293Y00437*
X00293Y00437*
X00294Y00436*
X00294Y00436*
X00294Y00436*
X00294Y00436*
X00294Y00436*
X00294Y00435*
X00294Y00435*
X00295Y00434*
X00295Y00434*
X00295Y00433*
X00295Y00432*
X00295Y00432*
X00295Y00431*
X00295Y00431*
X00295Y0043*
X00296Y0043*
X00296Y0043*
X00296Y00429*
X00296Y00429*
Y00429*
Y00429*
Y00429*
X00296Y00428*
X00296Y00427*
X00295Y00427*
X00295Y00426*
X00295Y00425*
X00295Y00425*
X00295Y00424*
X00295Y00424*
X00295Y00423*
X00295Y00423*
X00294Y00423*
X00294Y00422*
X00294Y00422*
X00294Y00422*
X00294Y00422*
X00294Y00422*
X00294Y00421*
X00293Y00421*
X00293Y0042*
X00293Y0042*
X00292Y0042*
X00292Y00419*
X00292Y00419*
X00291Y00419*
X00291Y00418*
X00291Y00418*
X0029Y00418*
X0029Y00418*
X0029Y00417*
X0029Y00417*
X0029Y00417*
X0029Y00417*
X00289Y00417*
X00288Y00417*
X00288Y00417*
X00287Y00416*
X00287Y00416*
X00286Y00416*
X00286Y00416*
X00285Y00416*
X00285Y00416*
X00284Y00416*
X00284Y00416*
X00283Y00416*
X00283*
X00283Y00416*
X00283*
X00282Y00416*
X00282Y00416*
X00281Y00416*
X0028Y00416*
X0028Y00416*
X00279Y00416*
X00279Y00416*
X00279Y00416*
X00278Y00416*
X00278Y00417*
X00278Y00417*
X00278Y00417*
X00278Y00417*
X00277Y00417*
X00277*
X00277Y00417*
X00276Y00417*
X00276Y00418*
X00275Y00418*
X00275Y00418*
X00274Y00418*
X00274Y00419*
X00274Y00419*
X00273Y00419*
X00273Y00419*
X00273Y00419*
X00273Y00419*
X00272Y0042*
X00272Y0042*
X00272Y0042*
Y00429*
X00283*
Y00426*
X00276*
Y00421*
X00276Y00421*
X00276Y00421*
X00277Y00421*
X00277Y0042*
X00278Y0042*
X00278Y0042*
X00278Y0042*
X00278Y0042*
X00279Y0042*
X00279Y0042*
X00279Y0042*
X00279*
X0028Y00419*
X0028Y00419*
X00281Y00419*
X00281Y00419*
X00282Y00419*
X00282Y00419*
X00282Y00419*
X00282Y00419*
X00283*
X00283Y00419*
X00283*
X00283Y00419*
X00284Y00419*
X00285Y00419*
X00285Y00419*
X00286Y00419*
X00286Y00419*
X00286Y00419*
X00287Y00419*
X00287Y0042*
X00287Y0042*
X00287Y0042*
X00287Y0042*
X00288Y0042*
X00288Y0042*
X00288Y0042*
X00288Y0042*
X00288Y0042*
X00289Y00421*
X00289Y00421*
X00289Y00421*
X0029Y00421*
X0029Y00422*
X0029Y00422*
X0029Y00422*
X00291Y00422*
X00291Y00423*
X00291Y00423*
X00291Y00423*
X00291Y00423*
X00291Y00423*
X00291Y00423*
X00291Y00424*
X00291Y00424*
X00292Y00425*
X00292Y00425*
X00292Y00426*
X00292Y00426*
X00292Y00427*
X00292Y00427*
X00292Y00428*
X00292Y00428*
X00292Y00428*
X00292Y00428*
Y00429*
Y00429*
Y00429*
X00292Y00429*
X00292Y0043*
X00292Y00431*
X00292Y00431*
X00292Y00432*
X00292Y00432*
X00292Y00432*
X00292Y00433*
X00292Y00433*
X00291Y00433*
X00291Y00433*
X00291Y00434*
X00291Y00434*
X00291Y00434*
Y00434*
X00291Y00434*
X00291Y00435*
X0029Y00435*
X0029Y00436*
X0029Y00436*
X0029Y00436*
X0029Y00436*
X0029Y00436*
X0029Y00436*
Y00436*
X00289Y00437*
X00289Y00437*
X00288Y00437*
X00288Y00438*
X00288Y00438*
X00287Y00438*
X00287Y00438*
X00287Y00438*
X00287Y00438*
X00287Y00438*
X00287*
X00286Y00438*
X00286Y00439*
X00285Y00439*
X00284Y00439*
X00284Y00439*
X00284Y00439*
X00284Y00439*
X00283Y00439*
X00283*
X00282Y00439*
X00282Y00439*
X00281Y00439*
X00281Y00439*
X00281Y00439*
X0028Y00438*
X0028Y00438*
X0028Y00438*
X0028Y00438*
X0028Y00438*
X0028Y00438*
X0028Y00438*
X0028*
X00279Y00438*
X00279Y00438*
X00278Y00437*
X00278Y00437*
X00278Y00437*
X00277Y00437*
X00277Y00436*
X00277Y00436*
Y00436*
X00277Y00436*
X00277Y00436*
X00276Y00435*
X00276Y00435*
X00276Y00434*
X00276Y00434*
X00276Y00434*
X00276Y00434*
X00276Y00434*
X00276Y00433*
Y00433*
X00273Y00434*
X00273Y00435*
X00273Y00435*
X00273Y00436*
X00273Y00436*
X00273Y00436*
X00274Y00437*
X00274Y00437*
X00274Y00437*
X00274Y00438*
X00274Y00438*
X00274Y00438*
X00274Y00438*
X00275Y00438*
X00275Y00438*
X00275Y00438*
X00275Y00438*
X00275Y00439*
X00275Y00439*
X00276Y00439*
X00276Y0044*
X00277Y0044*
X00277Y0044*
X00277Y0044*
X00278Y00441*
X00278Y00441*
X00278Y00441*
X00278Y00441*
X00278Y00441*
X00278*
X00279Y00441*
X0028Y00441*
X00281Y00442*
X00281Y00442*
X00281Y00442*
X00282Y00442*
X00282Y00442*
X00282Y00442*
X00283*
X00283Y00442*
X00283*
X00284Y00442*
G37*
G36*
X00242Y00416D02*
X00233D01*
X00232Y00416*
X00231Y00416*
X00231Y00416*
X00231Y00416*
X0023Y00416*
X0023Y00416*
X0023Y00416*
X0023Y00416*
X0023Y00416*
X00229Y00417*
X00229Y00417*
X00229Y00417*
X00229Y00417*
X00229*
X00228Y00417*
X00228Y00417*
X00227Y00417*
X00227Y00417*
X00227Y00417*
X00227Y00418*
X00226Y00418*
X00226Y00418*
X00226Y00418*
X00226Y00418*
X00226Y00418*
X00226*
X00226Y00418*
X00225Y00419*
X00225Y00419*
X00224Y00419*
X00224Y0042*
X00224Y0042*
X00224Y0042*
X00224Y0042*
X00224Y0042*
X00224Y0042*
X00223Y00421*
X00223Y00421*
X00223Y00422*
X00222Y00422*
X00222Y00423*
X00222Y00423*
X00222Y00423*
X00222Y00423*
X00222Y00424*
X00222Y00424*
X00222Y00424*
Y00424*
X00222Y00425*
X00222Y00425*
X00222Y00426*
X00221Y00427*
X00221Y00427*
X00221Y00428*
X00221Y00428*
X00221Y00428*
X00221Y00428*
Y00429*
Y00429*
Y00429*
Y00429*
Y00429*
X00221Y0043*
X00221Y00431*
X00221Y00431*
X00222Y00432*
X00222Y00432*
X00222Y00433*
X00222Y00433*
X00222Y00433*
X00222Y00434*
X00222Y00434*
X00222Y00434*
X00222Y00435*
X00222Y00435*
X00222Y00435*
X00222Y00435*
X00223Y00435*
X00223Y00436*
X00223Y00436*
X00223Y00437*
X00223Y00437*
X00224Y00437*
X00224Y00438*
X00224Y00438*
X00224Y00438*
X00225Y00438*
X00225Y00439*
X00225Y00439*
X00225Y00439*
X00225Y00439*
X00225Y00439*
X00225Y00439*
X00226Y0044*
X00227Y0044*
X00227Y0044*
X00228Y00441*
X00228Y00441*
X00228Y00441*
X00228Y00441*
X00229Y00441*
X00229Y00441*
X00229Y00441*
X00229Y00441*
X00229*
X00229Y00441*
X0023Y00441*
X0023Y00441*
X00231Y00441*
X00232Y00441*
X00232Y00441*
X00232*
X00233Y00441*
X00242*
Y00416*
G37*
M02*