%FSTAX23Y23*%
%MOIN*%
%SFA1B1*%

%IPPOS*%
%AMD29*
4,1,8,-0.009800,0.017100,-0.009800,0.017100,-0.017100,-0.009800,-0.017100,-0.009800,0.009900,-0.017100,0.009900,-0.017100,0.017100,0.009800,0.017100,0.009800,-0.009800,0.017100,0.0*
1,1,0.039370,0.000000,0.000000*
1,1,0.039370,0.000000,0.000000*
1,1,0.039370,0.000000,0.000000*
1,1,0.039370,0.000000,0.000000*
%
%AMD30*
4,1,8,-0.019700,0.000000,-0.019700,0.000000,0.000000,-0.019700,0.000000,-0.019700,0.019700,0.000000,0.019700,0.000000,0.000000,0.019700,0.000000,0.019700,-0.019700,0.000000,0.0*
1,1,0.039370,0.000000,0.000000*
1,1,0.039370,0.000000,0.000000*
1,1,0.039370,0.000000,0.000000*
1,1,0.039370,0.000000,0.000000*
%
%AMD31*
4,1,8,0.009900,0.017100,0.009900,0.017100,-0.017100,0.009800,-0.017100,0.009800,-0.009900,-0.017100,-0.009900,-0.017100,0.017100,-0.009900,0.017100,-0.009900,0.009900,0.017100,0.0*
1,1,0.039370,0.000000,0.000000*
1,1,0.039370,0.000000,0.000000*
1,1,0.039370,0.000000,0.000000*
1,1,0.039370,0.000000,0.000000*
%
%ADD27R,0.035039X0.025197*%
G04~CAMADD=29~8~0.0~0.0~393.7~393.7~196.9~0.0~15~0.0~0.0~0.0~0.0~0~0.0~0.0~0.0~0.0~0~0.0~0.0~0.0~30.0~392.0~392.0*
%ADD29D29*%
G04~CAMADD=30~8~0.0~0.0~393.7~393.7~196.9~0.0~15~0.0~0.0~0.0~0.0~0~0.0~0.0~0.0~0.0~0~0.0~0.0~0.0~90.0~394.0~393.0*
%ADD30D30*%
G04~CAMADD=31~8~0.0~0.0~393.7~393.7~196.9~0.0~15~0.0~0.0~0.0~0.0~0~0.0~0.0~0.0~0.0~0~0.0~0.0~0.0~330.0~392.0~392.0*
%ADD31D31*%
%ADD56R,0.015752X0.074803*%
%ADD57R,0.031496X0.037401*%
%ADD58R,0.019685X0.035433*%
%ADD59R,0.224409X0.224409*%
%ADD60R,0.023622X0.031496*%
%ADD61R,0.011811X0.033465*%
%ADD62R,0.055000X0.043000*%
%ADD63R,0.033465X0.011811*%
G54D27*
X-00691Y00361D03*
X-00642Y00214D03*
Y00269D03*
X-00691Y00416D03*
G54D29*
X00581Y0065D03*
Y-0065D03*
X-006Y0065D03*
Y-0065D03*
X-00318Y00487D03*
X-00881Y-00487D03*
G54D30*
X-00881Y00487D03*
X-00006Y00305D03*
X01144Y-00325D03*
X-01163Y00325D03*
X-00006Y-00305D03*
X-00318Y-00487D03*
G54D31*
X01144Y00325D03*
X-01163Y-00325D03*
X-01163Y0D03*
G54D56*
X-0051Y00236D03*
X-00557D03*
X-00463D03*
G54D57*
X-00986Y00312D03*
X-00786Y-00223D03*
X-00736D03*
X-00937Y00312D03*
G54D58*
X-01058Y00265D03*
Y00174D03*
G54D59*
X-00604Y-00034D03*
G54D60*
X-00931Y00209D03*
X-00986D03*
G54D61*
X-00613Y00101D03*
X-00633D03*
X-00653D03*
X-00712D03*
X-00692D03*
X-00672D03*
X-00535D03*
X-00515D03*
X-00495D03*
Y-00169D03*
X-00515D03*
X-00535D03*
X-00554D03*
X-00574D03*
X-00594D03*
X-00613D03*
X-00633D03*
X-00653D03*
X-00672D03*
X-00692D03*
X-00712D03*
X-00594Y00101D03*
X-00554D03*
X-00574D03*
G54D62*
X-00748Y00202D03*
X-00847Y00201D03*
Y00274D03*
X-00748Y00275D03*
G54D63*
X-00468Y00054D03*
Y00074D03*
Y00034D03*
Y00015D03*
Y-00004D03*
Y-00024D03*
Y-00043D03*
Y-00063D03*
Y-00083D03*
Y-00102D03*
Y-00122D03*
Y-00142D03*
X-00739D03*
Y-00122D03*
Y-00102D03*
Y-00083D03*
Y-00063D03*
Y-00043D03*
Y-00024D03*
Y-00004D03*
Y00015D03*
Y00034D03*
Y00054D03*
Y00074D03*
M02*