%FSTAX23Y23*%
%MOIN*%
%SFA1B1*%

%IPPOS*%
%AMD40*
4,1,8,-0.011800,0.020500,-0.011800,0.020500,-0.020500,-0.011800,-0.020500,-0.011800,0.011900,-0.020500,0.011900,-0.020500,0.020500,0.011800,0.020500,0.011800,-0.011800,0.020500,0.0*
1,1,0.047370,0.000000,0.000000*
1,1,0.047370,0.000000,0.000000*
1,1,0.047370,0.000000,0.000000*
1,1,0.047370,0.000000,0.000000*
%
%AMD41*
4,1,8,-0.023700,0.000000,-0.023700,0.000000,0.000000,-0.023700,0.000000,-0.023700,0.023700,0.000000,0.023700,0.000000,0.000000,0.023700,0.000000,0.023700,-0.023700,0.000000,0.0*
1,1,0.047370,0.000000,0.000000*
1,1,0.047370,0.000000,0.000000*
1,1,0.047370,0.000000,0.000000*
1,1,0.047370,0.000000,0.000000*
%
%AMD42*
4,1,8,0.011900,0.020500,0.011900,0.020500,-0.020500,0.011800,-0.020500,0.011800,-0.011900,-0.020500,-0.011900,-0.020500,0.020500,-0.011900,0.020500,-0.011900,0.011900,0.020500,0.0*
1,1,0.047370,0.000000,0.000000*
1,1,0.047370,0.000000,0.000000*
1,1,0.047370,0.000000,0.000000*
1,1,0.047370,0.000000,0.000000*
%
%ADD38R,0.038976X0.029134*%
G04~CAMADD=40~8~0.0~0.0~473.7~473.7~236.9~0.0~15~0.0~0.0~0.0~0.0~0~0.0~0.0~0.0~0.0~0~0.0~0.0~0.0~30.0~474.0~473.0*
%ADD40D40*%
G04~CAMADD=41~8~0.0~0.0~473.7~473.7~236.9~0.0~15~0.0~0.0~0.0~0.0~0~0.0~0.0~0.0~0.0~0~0.0~0.0~0.0~90.0~474.0~473.0*
%ADD41D41*%
G04~CAMADD=42~8~0.0~0.0~473.7~473.7~236.9~0.0~15~0.0~0.0~0.0~0.0~0~0.0~0.0~0.0~0.0~0~0.0~0.0~0.0~330.0~474.0~473.0*
%ADD42D42*%
%ADD43C,0.063118*%
%ADD44R,0.063118X0.063118*%
%ADD45C,0.061811*%
%ADD46R,0.061811X0.061811*%
%ADD47C,0.058000*%
%ADD59R,0.224409X0.224409*%
%ADD60R,0.023622X0.031496*%
%ADD61R,0.011811X0.033465*%
%ADD63R,0.033465X0.011811*%
%ADD64R,0.023752X0.082803*%
%ADD65R,0.039496X0.045401*%
%ADD66R,0.027685X0.043433*%
%ADD67R,0.063000X0.051000*%
G36*
X00604Y00755D02*
X00619Y00749D01*
X00632Y00739*
X00643Y00728*
X00651Y00714*
X00656Y00699*
X00658Y00683*
X00657Y00667*
X00652Y00652*
X00648Y00645*
X00581Y00684*
X00513Y00645*
X00509Y00652*
X00505Y00667*
X00503Y00683*
X00505Y00699*
X0051Y00714*
X00519Y00728*
X00529Y00739*
X00542Y00749*
X00557Y00755*
X00573Y00758*
X00589*
X00604Y00755*
G37*
G36*
X-00576D02*
X-00561Y00749D01*
X-00548Y00739*
X-00537Y00728*
X-00529Y00714*
X-00524Y00699*
X-00522Y00683*
X-00523Y00667*
X-00528Y00652*
X-00532Y00645*
X-006Y00684*
X-00667Y00645*
X-00671Y00652*
X-00676Y00667*
X-00677Y00683*
X-00675Y00699*
X-0067Y00714*
X-00662Y00728*
X-00651Y00739*
X-00638Y00749*
X-00623Y00755*
X-00607Y00758*
X-00592*
X-00576Y00755*
G37*
G36*
X00648Y00644D02*
X00645Y00638D01*
X00636Y00628*
X00626Y00619*
X00614Y00612*
X00601Y00607*
X00588Y00604*
X00574Y00604*
X0056Y00607*
X00547Y00612*
X00535Y00619*
X00525Y00628*
X00516Y00639*
X00513Y00645*
X00581Y00684*
X00648Y00644*
G37*
G36*
X-00532D02*
X-00535Y00638D01*
X-00544Y00628*
X-00554Y00619*
X-00566Y00612*
X-00579Y00607*
X-00593Y00604*
X-00606Y00604*
X-0062Y00607*
X-00633Y00612*
X-00645Y00619*
X-00655Y00628*
X-00664Y00639*
X-00667Y00645*
X-00599Y00684*
X-00532Y00644*
G37*
G36*
X-00363Y00547D02*
X-00363Y00547D01*
X-00303Y00513*
X-00244Y00478*
X-00244Y00478*
X-00244Y00478*
X-00247Y00472*
X-00256Y00462*
X-00267Y00453*
X-00279Y00447*
X-00292Y00443*
X-00306Y00442*
X-0032Y00443*
X-00333Y00448*
X-00339Y00451*
X-00345Y00455*
X-00355Y00464*
X-00363Y00475*
X-00369Y00487*
X-00373Y00501*
X-00374Y00515*
X-00371Y00528*
X-00367Y00541*
X-00363Y00547*
X-00363Y00547*
G37*
G36*
X-00833Y00541D02*
X-00828Y00528D01*
X-00826Y00515*
X-00826Y00501*
X-0083Y00487*
X-00836Y00475*
X-00844Y00464*
X-00854Y00455*
X-00866Y00448*
X-00879Y00443*
X-00893Y00442*
X-00907Y00443*
X-0092Y00447*
X-00932Y00453*
X-00943Y00462*
X-00952Y00472*
X-00955Y00478*
X-00836Y00547*
X-00833Y00541*
G37*
G36*
X-01124Y00381D02*
D01*
G37*
G36*
X-00009Y00343D02*
X00056Y00381D01*
X00059Y00375*
X00064Y00362*
X00067Y00348*
X00067Y00335*
X00065Y00321*
X0006Y00308*
X00053Y00296*
X00044Y00286*
X00034Y00277*
X00022Y0027*
X00009Y00266*
X-00004Y00264*
X-00009Y00264*
X-00014Y00264*
X-00027Y00266*
X-00041Y0027*
X-00053Y00277*
X-00063Y00286*
X-00072Y00296*
X-00079Y00308*
X-00084Y00321*
X-00086Y00335*
X-00086Y00348*
X-00083Y00362*
X-00078Y00375*
X-00075Y00381*
X-00009Y00343*
G37*
G36*
X-01124Y0038D02*
X-01124Y00381D01*
X-01121Y00375*
X-01116Y00362*
X-01113Y00348*
X-01113Y00335*
X-01115Y00321*
X-0112Y00308*
X-01127Y00296*
X-01136Y00286*
X-01146Y00277*
X-01146Y00277*
X-01146Y00277*
X-01159Y0027*
X-01172Y00265*
X-01185Y00263*
X-01192Y00264*
X-01192Y00342*
X-01124Y00381*
X-01124Y0038*
G37*
G36*
X01106Y0038D02*
X01106Y0038D01*
X01132Y00366*
X01173Y00342*
Y00342*
X01173Y00341*
X01173Y00294*
Y00264*
X01173*
Y00263*
X01166Y00263*
X01153Y00265*
X0114Y0027*
X01128Y00277*
X01117Y00285*
X01108Y00296*
X01105Y00302*
X01101Y00308*
X01096Y00321*
X01094Y00335*
X01094Y00348*
X01097Y00362*
X01102Y00375*
X01105Y00381*
X01106Y0038*
G37*
G36*
X-01171Y00066D02*
X-01159Y00061D01*
X-01147Y00054*
X-01137Y00044*
X-01129Y00033*
X-01124Y0002*
X-01121Y00006*
Y-00006*
X-01124Y-0002*
X-01129Y-00033*
X-01137Y-00044*
X-01147Y-00054*
X-01159Y-00061*
X-01171Y-00066*
X-01172Y-00066*
X-01172Y-00066*
X-01185Y-00069*
X-01192Y-00068*
X-01192Y00068*
X-01192Y00068*
Y00068*
X-01185Y00069*
X-01171Y00066*
G37*
G36*
X01173Y-00264D02*
D01*
Y-00342*
X01105Y-00381*
X01102Y-00375*
X01097Y-00362*
X01094Y-00348*
X01094Y-00335*
X01096Y-00321*
X01101Y-00308*
X01108Y-00296*
X01117Y-00286*
X01128Y-00277*
X0114Y-0027*
X01153Y-00266*
X01166Y-00264*
X01173Y-00264*
G37*
G36*
X00009Y-00266D02*
X00022Y-0027D01*
X00034Y-00277*
X00044Y-00286*
X00053Y-00296*
X0006Y-00308*
X00065Y-00321*
X00067Y-00335*
X00067Y-00348*
X00064Y-00362*
X00059Y-00375*
X00056Y-00381*
X00023Y-00362*
X-00009Y-00343*
X-00075Y-00381*
X-00078Y-00375*
X-00083Y-00362*
X-00086Y-00348*
X-00086Y-00335*
X-00084Y-00321*
X-00079Y-00308*
X-00072Y-00296*
X-00063Y-00286*
X-00053Y-00277*
X-00041Y-0027*
X-00027Y-00266*
X-00014Y-00264*
X-00009Y-00264*
X-00004Y-00264*
X00009Y-00266*
G37*
G36*
X-01171Y-00265D02*
X-01158Y-0027D01*
X-01146Y-00277*
X-01136Y-00285*
X-01127Y-00296*
X-0112Y-00308*
X-01115Y-00321*
X-01113Y-00334*
X-01113Y-00348*
X-01116Y-00362*
X-01121Y-00375*
X-01124Y-0038*
X-01192Y-00341*
X-01192Y-00263*
X-01185Y-00263*
X-01171Y-00265*
G37*
G36*
X00056Y-00381D02*
D01*
G37*
G36*
X-01192Y-00342D02*
X-01124Y-00381D01*
X-01129Y-00387*
X-0114Y-00399*
X-01153Y-00408*
X-01167Y-00414*
X-01183Y-00418*
X-01199Y-00417*
X-01215Y-00414*
X-01229Y-00407*
X-01242Y-00398*
X-01253Y-00386*
X-01261Y-00372*
X-01266Y-00357*
X-01268Y-00341*
X-01266Y-00325*
X-01261Y-0031*
X-01253Y-00296*
X-01243Y-00284*
X-0123Y-00274*
X-01216Y-00267*
X-012Y-00264*
X-01192Y-00264*
X-01192Y-00342*
G37*
G36*
X-00292Y-00443D02*
X-00279Y-00447D01*
X-00267Y-00453*
X-00256Y-00462*
X-00247Y-00472*
X-00244Y-00478*
X-00303Y-00513*
X-00363Y-00547*
X-00366Y-00541*
X-00371Y-00528*
X-00373Y-00515*
X-00373Y-00501*
X-00369Y-00487*
X-00363Y-00475*
X-00355Y-00464*
X-00345Y-00455*
X-00333Y-00448*
X-0032Y-00443*
X-00306Y-00442*
X-00292Y-00443*
G37*
G36*
X-00879Y-00443D02*
X-00866Y-00448D01*
X-0086Y-00451*
X-00854Y-00455*
X-00844Y-00464*
X-00836Y-00475*
X-0083Y-00487*
X-00826Y-00501*
X-00825Y-00515*
X-00828Y-00528*
X-00832Y-00541*
X-00836Y-00547*
X-00836Y-00547*
X-00836Y-00547*
X-00896Y-00513*
X-00955Y-00478*
X-00955Y-00478*
X-00955Y-00478*
X-00952Y-00472*
X-00943Y-00462*
X-00932Y-00453*
X-0092Y-00447*
X-00907Y-00443*
X-00893Y-00442*
X-00879Y-00443*
G37*
G36*
X00587Y-00604D02*
X00601Y-00607D01*
X00614Y-00612*
X00626Y-00619*
X00636Y-00628*
X00645Y-00639*
X00648Y-00645*
X00645Y-00647*
X00645Y-00647*
X00581Y-00684*
X00516Y-00647*
X00517Y-00646*
X00513Y-00644*
X00516Y-00638*
X00525Y-00628*
X00535Y-00619*
X00547Y-00612*
X0056Y-00607*
X00574Y-00604*
X00587Y-00604*
G37*
G36*
X-00593D02*
X-00579Y-00607D01*
X-00566Y-00612*
X-00554Y-00619*
X-00544Y-00628*
X-00535Y-00639*
X-00532Y-00645*
X-00535Y-00647*
X-00535Y-00647*
X-006Y-00684*
X-00664Y-00647*
X-00664Y-00646*
X-00667Y-00644*
X-00664Y-00638*
X-00655Y-00628*
X-00645Y-00619*
X-00633Y-00612*
X-0062Y-00607*
X-00606Y-00604*
X-00593Y-00604*
G37*
G54D38*
X-00691Y00361D03*
X-00642Y00214D03*
Y00269D03*
X-00691Y00416D03*
G54D40*
X00581Y0065D03*
Y-0065D03*
X-006Y0065D03*
Y-0065D03*
X-00318Y00487D03*
X-00881Y-00487D03*
G54D41*
X-00881Y00487D03*
X-00006Y00305D03*
X01144Y-00325D03*
X-01163Y00325D03*
X-00006Y-00305D03*
X-00318Y-00487D03*
G54D42*
X01144Y00325D03*
X-01163Y-00325D03*
X-01163Y0D03*
G54D43*
X-00918Y00086D03*
G54D44*
X-0082Y00086D03*
G54D45*
X-00508Y-00366D03*
X-00608D03*
G54D46*
X-00708Y-00366D03*
G54D47*
X-00681Y-00054D03*
X00632Y00313D03*
X00631Y0023D03*
X00698Y0036D03*
X0069Y00274D03*
X00424Y-0028D03*
X00404Y-00347D03*
X-00465Y00315D03*
X-01017Y00004D03*
X-00869Y00347D03*
X-0078Y00434D03*
X-00434Y00412D03*
X00232Y00312D03*
X-00345Y-00352D03*
X-00221Y-0035D03*
X-007Y-00494D03*
X-00918Y00255D03*
X01092Y00062D03*
X-00252Y00191D03*
X-01118Y00152D03*
X00809Y00161D03*
X-00834Y-00044D03*
X00164Y00079D03*
X00374Y0015D03*
X00602Y00034D03*
X-00817Y-0013D03*
X-00081Y-00123D03*
X00517Y00051D03*
X00819Y-00006D03*
X00299Y-00259D03*
X00493Y-00508D03*
X00832Y-00187D03*
X-0012Y00129D03*
X00353Y-00297D03*
X00433Y-00147D03*
X00874Y-00443D03*
X0101Y00211D03*
X00113Y00209D03*
X00514Y0013D03*
X00086Y00041D03*
X00655Y0D03*
X0011Y-00271D03*
X00673Y0007D03*
X00468Y-00204D03*
X00987Y00294D03*
X-00341Y-00142D03*
X00171Y-0004D03*
X-00923Y-00066D03*
X00569Y00114D03*
X-00998Y-00133D03*
X00739Y-00418D03*
X0069Y00156D03*
X00578Y-00317D03*
X00777Y-00042D03*
X00574Y-0054D03*
X00723D03*
X00028Y00135D03*
X00796Y00107D03*
X00834Y-00345D03*
X00994Y-0005D03*
X00686Y-00339D03*
X00949Y00109D03*
X00837Y00459D03*
X-00511Y00475D03*
X-00417Y-00126D03*
X-00692Y00512D03*
G54D59*
X-00604Y-00034D03*
G54D60*
X-00931Y00209D03*
X-00986D03*
G54D61*
X-00613Y00101D03*
X-00633D03*
X-00653D03*
X-00712D03*
X-00692D03*
X-00672D03*
X-00535D03*
X-00515D03*
X-00495D03*
Y-00169D03*
X-00515D03*
X-00535D03*
X-00554D03*
X-00574D03*
X-00594D03*
X-00613D03*
X-00633D03*
X-00653D03*
X-00672D03*
X-00692D03*
X-00712D03*
X-00594Y00101D03*
X-00554D03*
X-00574D03*
G54D63*
X-00468Y00054D03*
Y00074D03*
Y00034D03*
Y00015D03*
Y-00004D03*
Y-00024D03*
Y-00043D03*
Y-00063D03*
Y-00083D03*
Y-00102D03*
Y-00122D03*
Y-00142D03*
X-00739D03*
Y-00122D03*
Y-00102D03*
Y-00083D03*
Y-00063D03*
Y-00043D03*
Y-00024D03*
Y-00004D03*
Y00015D03*
Y00034D03*
Y00054D03*
Y00074D03*
G54D64*
X-0051Y00236D03*
X-00557D03*
X-00463D03*
G54D65*
X-00986Y00312D03*
X-00786Y-00223D03*
X-00736D03*
X-00937Y00312D03*
G54D66*
X-01058Y00265D03*
Y00174D03*
G54D67*
X-00748Y00202D03*
X-00847Y00201D03*
Y00274D03*
X-00748Y00275D03*
M02*