%FSTAX23Y23*%
%MOIN*%
%SFA1B1*%

%IPPOS*%
%AMD29*
4,1,8,-0.009800,0.017100,-0.009800,0.017100,-0.017100,-0.009800,-0.017100,-0.009800,0.009900,-0.017100,0.009900,-0.017100,0.017100,0.009800,0.017100,0.009800,-0.009800,0.017100,0.0*
1,1,0.039370,0.000000,0.000000*
1,1,0.039370,0.000000,0.000000*
1,1,0.039370,0.000000,0.000000*
1,1,0.039370,0.000000,0.000000*
%
%AMD30*
4,1,8,-0.019700,0.000000,-0.019700,0.000000,0.000000,-0.019700,0.000000,-0.019700,0.019700,0.000000,0.019700,0.000000,0.000000,0.019700,0.000000,0.019700,-0.019700,0.000000,0.0*
1,1,0.039370,0.000000,0.000000*
1,1,0.039370,0.000000,0.000000*
1,1,0.039370,0.000000,0.000000*
1,1,0.039370,0.000000,0.000000*
%
%AMD31*
4,1,8,0.009900,0.017100,0.009900,0.017100,-0.017100,0.009800,-0.017100,0.009800,-0.009900,-0.017100,-0.009900,-0.017100,0.017100,-0.009900,0.017100,-0.009900,0.009900,0.017100,0.0*
1,1,0.039370,0.000000,0.000000*
1,1,0.039370,0.000000,0.000000*
1,1,0.039370,0.000000,0.000000*
1,1,0.039370,0.000000,0.000000*
%
%ADD20R,0.055118X0.023622*%
%ADD21R,0.020079X0.022047*%
%ADD22R,0.040000X0.055000*%
%ADD23R,0.022000X0.052000*%
%ADD24R,0.027559X0.020079*%
%ADD25R,0.015748X0.074803*%
%ADD26R,0.045716X0.010661*%
%ADD27R,0.035039X0.025197*%
%ADD28R,0.037401X0.031496*%
G04~CAMADD=29~8~0.0~0.0~393.7~393.7~196.9~0.0~15~0.0~0.0~0.0~0.0~0~0.0~0.0~0.0~0.0~0~0.0~0.0~0.0~30.0~392.0~392.0*
%ADD29D29*%
G04~CAMADD=30~8~0.0~0.0~393.7~393.7~196.9~0.0~15~0.0~0.0~0.0~0.0~0~0.0~0.0~0.0~0.0~0~0.0~0.0~0.0~90.0~394.0~393.0*
%ADD30D30*%
G04~CAMADD=31~8~0.0~0.0~393.7~393.7~196.9~0.0~15~0.0~0.0~0.0~0.0~0~0.0~0.0~0.0~0.0~0~0.0~0.0~0.0~330.0~392.0~392.0*
%ADD31D31*%
%ADD32R,0.031496X0.031496*%
G54D20*
X00026Y00093D03*
Y00019D03*
X-00071D03*
Y00056D03*
Y00093D03*
G54D21*
X00894Y00417D03*
X00859D03*
X00303Y00082D03*
X00268D03*
X00272Y00312D03*
X00856Y00323D03*
X00821D03*
X00307Y00312D03*
G54D22*
X00299Y-00317D03*
X00261Y-00404D03*
X00336D03*
X00556Y-00172D03*
X00518Y-00259D03*
X00593D03*
X00506Y-00354D03*
X00933Y-00241D03*
X00685Y-00396D03*
X00648Y-00482D03*
X00723D03*
X00543Y-00441D03*
X00192Y-00139D03*
X00154Y-00225D03*
X00229D03*
X00895Y-00328D03*
X00468Y-00441D03*
X0097Y-00328D03*
G54D23*
X00764Y-00177D03*
X0039Y-00142D03*
X01074Y-00123D03*
G54D24*
X00268Y00194D03*
Y00159D03*
X00322Y00192D03*
Y00157D03*
X002Y00199D03*
Y00164D03*
X01068Y00136D03*
X00924Y00354D03*
X00916Y00072D03*
X00667Y-0012D03*
Y-00084D03*
X00496Y-00067D03*
X00928Y-00092D03*
Y-00128D03*
X00991Y00067D03*
X0081Y-00454D03*
X01068Y00172D03*
X00405Y-00387D03*
X00156Y-00321D03*
X0081Y-00418D03*
X00835Y00218D03*
X01056Y00259D03*
X00496Y-00103D03*
X00405Y-00423D03*
X00991Y00032D03*
X00156Y-00356D03*
X00896Y00188D03*
X0085Y00034D03*
X00916Y00036D03*
X00835Y00254D03*
X-00223Y-00072D03*
Y-00037D03*
X0085Y00069D03*
X00896Y00224D03*
X-00374Y-00191D03*
Y-00227D03*
X00924Y00318D03*
X01056Y00294D03*
G54D25*
X00303Y-00002D03*
X00256D03*
X00209D03*
G54D26*
X0046Y00053D03*
Y00309D03*
Y00079D03*
X00742Y00156D03*
Y00028D03*
Y00233D03*
Y00079D03*
Y00105D03*
Y00053D03*
Y00258D03*
Y00284D03*
Y0013D03*
Y00309D03*
Y00207D03*
Y00181D03*
X0046Y00028D03*
Y00105D03*
Y0013D03*
Y00156D03*
Y00181D03*
Y00207D03*
Y00233D03*
Y00258D03*
Y00284D03*
G54D27*
X-00321Y00068D03*
Y00123D03*
G54D28*
X-00319Y-0002D03*
Y-00069D03*
G54D29*
X01144Y00325D03*
X-01163Y-00325D03*
X-00881Y-00487D03*
X-00318Y00487D03*
G54D30*
X00581Y0065D03*
Y-0065D03*
X-00006Y00305D03*
X-006Y0065D03*
X-00006Y-00305D03*
X-006Y-0065D03*
X-00318Y-00487D03*
X-00881Y00487D03*
G54D31*
X01144Y-00325D03*
X-01163Y00325D03*
X-01163Y0D03*
G54D32*
X-00389Y-00069D03*
Y-0001D03*
M02*