G04*
G04 #@! TF.GenerationSoftware,Altium Limited,Altium Designer,25.8.1 (18)*
G04*
G04 Layer_Color=8421504*
%FSLAX44Y44*%
%MOMM*%
G71*
G04*
G04 #@! TF.SameCoordinates,E23997CD-C925-4744-B0FB-38551C603FD4*
G04*
G04*
G04 #@! TF.FilePolarity,Positive*
G04*
G01*
G75*
%ADD20R,1.4000X0.6000*%
%ADD21R,0.5100X0.5600*%
%ADD22R,1.0160X1.3970*%
%ADD23R,0.5588X1.3208*%
%ADD24R,0.7000X0.5100*%
%ADD25R,0.4000X1.9000*%
%ADD26R,1.1612X0.2708*%
%ADD27R,0.8900X0.6400*%
%ADD28R,0.9500X0.8000*%
G04:AMPARAMS|DCode=29|XSize=1mm|YSize=1mm|CornerRadius=0.5mm|HoleSize=0mm|Usage=FLASHONLY|Rotation=30.000|XOffset=0mm|YOffset=0mm|HoleType=Round|Shape=RoundedRectangle|*
%AMROUNDEDRECTD29*
21,1,1.0000,0.0000,0,0,30.0*
21,1,0.0000,1.0000,0,0,30.0*
1,1,1.0000,0.0000,0.0000*
1,1,1.0000,0.0000,0.0000*
1,1,1.0000,0.0000,0.0000*
1,1,1.0000,0.0000,0.0000*
%
%ADD29ROUNDEDRECTD29*%
G04:AMPARAMS|DCode=30|XSize=1mm|YSize=1mm|CornerRadius=0.5mm|HoleSize=0mm|Usage=FLASHONLY|Rotation=90.000|XOffset=0mm|YOffset=0mm|HoleType=Round|Shape=RoundedRectangle|*
%AMROUNDEDRECTD30*
21,1,1.0000,0.0000,0,0,90.0*
21,1,0.0000,1.0000,0,0,90.0*
1,1,1.0000,0.0000,0.0000*
1,1,1.0000,0.0000,0.0000*
1,1,1.0000,0.0000,0.0000*
1,1,1.0000,0.0000,0.0000*
%
%ADD30ROUNDEDRECTD30*%
G04:AMPARAMS|DCode=31|XSize=1mm|YSize=1mm|CornerRadius=0.5mm|HoleSize=0mm|Usage=FLASHONLY|Rotation=330.000|XOffset=0mm|YOffset=0mm|HoleType=Round|Shape=RoundedRectangle|*
%AMROUNDEDRECTD31*
21,1,1.0000,0.0000,0,0,330.0*
21,1,0.0000,1.0000,0,0,330.0*
1,1,1.0000,0.0000,0.0000*
1,1,1.0000,0.0000,0.0000*
1,1,1.0000,0.0000,0.0000*
1,1,1.0000,0.0000,0.0000*
%
%ADD31ROUNDEDRECTD31*%
%ADD32R,0.8000X0.8000*%
D20*
X6798Y23840D02*
D03*
Y4840D02*
D03*
X-18201D02*
D03*
Y14340D02*
D03*
Y23840D02*
D03*
D21*
X227291Y105950D02*
D03*
X218291D02*
D03*
X77098Y21026D02*
D03*
X68098D02*
D03*
X69131Y79375D02*
D03*
X217627Y82092D02*
D03*
X208627D02*
D03*
X78130Y79375D02*
D03*
D22*
X76018Y-80687D02*
D03*
X66518Y-102683D02*
D03*
X85518D02*
D03*
X141250Y-43843D02*
D03*
X131751Y-65839D02*
D03*
X150750D02*
D03*
X128566Y-90049D02*
D03*
X236984Y-61358D02*
D03*
X174168Y-100619D02*
D03*
X164669Y-122615D02*
D03*
X183668D02*
D03*
X138066Y-112045D02*
D03*
X48838Y-35386D02*
D03*
X39338Y-57383D02*
D03*
X58337D02*
D03*
X227485Y-83355D02*
D03*
X119066Y-112045D02*
D03*
X246484Y-83355D02*
D03*
D23*
X194100Y-45051D02*
D03*
X99272Y-36293D02*
D03*
X272922Y-31461D02*
D03*
D24*
X68185Y49390D02*
D03*
Y40390D02*
D03*
X81811Y48989D02*
D03*
Y39989D02*
D03*
X50952Y50683D02*
D03*
Y41684D02*
D03*
X271412Y34738D02*
D03*
X234870Y89944D02*
D03*
X232757Y18370D02*
D03*
X169638Y-30494D02*
D03*
Y-21494D02*
D03*
X126150Y-17267D02*
D03*
X235776Y-23608D02*
D03*
Y-32608D02*
D03*
X251783Y17162D02*
D03*
X205879Y-115357D02*
D03*
X271412Y43738D02*
D03*
X102896Y-98505D02*
D03*
X39778Y-81593D02*
D03*
X205879Y-106357D02*
D03*
X212220Y55546D02*
D03*
X268392Y65844D02*
D03*
X126150Y-26266D02*
D03*
X102896Y-107505D02*
D03*
X251783Y8162D02*
D03*
X39778Y-90592D02*
D03*
X227622Y47996D02*
D03*
X216146Y8766D02*
D03*
X232757Y9370D02*
D03*
X212220Y64546D02*
D03*
X-56862Y-18414D02*
D03*
Y-9414D02*
D03*
X216146Y17766D02*
D03*
X227622Y56996D02*
D03*
X-95133Y-48739D02*
D03*
Y-57738D02*
D03*
X234870Y80945D02*
D03*
X268392Y74844D02*
D03*
D25*
X77146Y-657D02*
D03*
X65146D02*
D03*
X53146D02*
D03*
D26*
X117090Y13695D02*
D03*
Y78696D02*
D03*
Y20195D02*
D03*
X188590Y39695D02*
D03*
Y7196D02*
D03*
Y59196D02*
D03*
Y20195D02*
D03*
Y26696D02*
D03*
Y13695D02*
D03*
Y65695D02*
D03*
Y72195D02*
D03*
Y33196D02*
D03*
Y78696D02*
D03*
Y52696D02*
D03*
Y46195D02*
D03*
X117090Y7196D02*
D03*
Y26696D02*
D03*
Y33196D02*
D03*
Y39695D02*
D03*
Y46195D02*
D03*
Y52696D02*
D03*
Y59196D02*
D03*
Y65695D02*
D03*
Y72195D02*
D03*
D27*
X-81626Y17355D02*
D03*
Y31356D02*
D03*
D28*
X-81026Y-5180D02*
D03*
Y-17680D02*
D03*
D29*
X290700Y82601D02*
D03*
X-295468Y-82601D02*
D03*
X-223901Y-123901D02*
D03*
X-80899Y123901D02*
D03*
D30*
X147599Y165199D02*
D03*
Y-165199D02*
D03*
X-1679Y77521D02*
D03*
X-152400Y165199D02*
D03*
X-1679Y-77521D02*
D03*
X-152400Y-165199D02*
D03*
X-80899Y-123901D02*
D03*
X-223901Y123901D02*
D03*
D31*
X290700Y-82601D02*
D03*
X-295468Y82601D02*
D03*
X-295501Y-0D02*
D03*
D32*
X-98806Y-17660D02*
D03*
Y-2660D02*
D03*
M02*
