G04*
G04 #@! TF.GenerationSoftware,Altium Limited,Altium Designer,25.8.1 (18)*
G04*
G04 Layer_Color=65535*
%FSLAX44Y44*%
%MOMM*%
G71*
G04*
G04 #@! TF.SameCoordinates,E23997CD-C925-4744-B0FB-38551C603FD4*
G04*
G04*
G04 #@! TF.FilePolarity,Positive*
G04*
G01*
G75*
%ADD10C,0.1524*%
%ADD11C,0.2000*%
%ADD12C,0.1000*%
%ADD13C,0.2500*%
%ADD14C,0.1200*%
%ADD15C,0.1270*%
%ADD16C,0.0800*%
%ADD17C,0.2540*%
%ADD18C,0.0635*%
%ADD19C,0.0762*%
G36*
X155852Y126433D02*
Y126281D01*
Y126128D01*
Y125976D01*
Y125823D01*
Y125671D01*
Y125519D01*
Y125366D01*
Y125214D01*
Y125062D01*
Y124909D01*
Y124757D01*
Y124604D01*
Y124452D01*
Y124299D01*
Y124147D01*
Y123995D01*
Y123842D01*
Y123690D01*
Y123538D01*
Y123385D01*
Y123233D01*
Y123080D01*
Y122928D01*
Y122775D01*
Y122623D01*
Y122471D01*
Y122318D01*
Y122166D01*
Y122014D01*
Y121861D01*
Y121709D01*
Y121556D01*
Y121404D01*
Y121251D01*
Y121099D01*
Y120947D01*
Y120794D01*
Y120642D01*
Y120490D01*
Y120337D01*
Y120185D01*
Y120032D01*
Y119880D01*
Y119727D01*
Y119575D01*
Y119423D01*
Y119270D01*
Y119118D01*
Y118966D01*
Y118813D01*
Y118661D01*
Y118508D01*
Y118356D01*
Y118203D01*
Y118051D01*
Y117899D01*
Y117746D01*
Y117594D01*
Y117442D01*
Y117289D01*
Y117137D01*
Y116984D01*
Y116832D01*
Y116679D01*
Y116527D01*
Y116375D01*
Y116222D01*
Y116070D01*
Y115918D01*
Y115765D01*
Y115613D01*
Y115460D01*
Y115308D01*
Y115155D01*
Y115003D01*
Y114851D01*
Y114698D01*
Y114546D01*
Y114394D01*
Y114241D01*
Y114089D01*
Y113936D01*
Y113784D01*
Y113631D01*
Y113479D01*
Y113327D01*
Y113174D01*
Y113022D01*
Y112870D01*
Y112717D01*
Y112565D01*
Y112412D01*
Y112260D01*
Y112107D01*
Y111955D01*
Y111803D01*
Y111650D01*
Y111498D01*
Y111346D01*
Y111193D01*
Y111041D01*
Y110888D01*
Y110736D01*
Y110583D01*
Y110431D01*
Y110279D01*
Y110126D01*
Y109974D01*
X148842D01*
Y110126D01*
X148690D01*
Y110279D01*
Y110431D01*
Y110583D01*
Y110736D01*
Y110888D01*
Y111041D01*
Y111193D01*
Y111346D01*
Y111498D01*
Y111650D01*
Y111803D01*
Y111955D01*
Y112107D01*
Y112260D01*
Y112412D01*
Y112565D01*
Y112717D01*
Y112870D01*
Y113022D01*
Y113174D01*
Y113327D01*
Y113479D01*
Y113631D01*
Y113784D01*
Y113936D01*
Y114089D01*
Y114241D01*
Y114394D01*
Y114546D01*
Y114698D01*
Y114851D01*
Y115003D01*
Y115155D01*
Y115308D01*
Y115460D01*
Y115613D01*
Y115765D01*
Y115918D01*
Y116070D01*
Y116222D01*
Y116375D01*
Y116527D01*
Y116679D01*
Y116832D01*
Y116984D01*
Y117137D01*
Y117289D01*
Y117442D01*
Y117594D01*
Y117746D01*
Y117899D01*
Y118051D01*
Y118203D01*
Y118356D01*
Y118508D01*
Y118661D01*
Y118813D01*
X148537D01*
Y118966D01*
Y119118D01*
X148385D01*
Y119270D01*
X148232D01*
Y119423D01*
X148080D01*
Y119575D01*
X147775D01*
Y119727D01*
X147166D01*
Y119880D01*
X147013D01*
Y119727D01*
X146404D01*
Y119575D01*
X146099D01*
Y119423D01*
X145947D01*
Y119270D01*
X145794D01*
Y119118D01*
X145642D01*
Y118966D01*
Y118813D01*
X145489D01*
Y118661D01*
Y118508D01*
Y118356D01*
Y118203D01*
Y118051D01*
Y117899D01*
Y117746D01*
Y117594D01*
Y117442D01*
Y117289D01*
Y117137D01*
Y116984D01*
Y116832D01*
Y116679D01*
Y116527D01*
Y116375D01*
Y116222D01*
Y116070D01*
Y115918D01*
Y115765D01*
Y115613D01*
Y115460D01*
Y115308D01*
Y115155D01*
Y115003D01*
X145337D01*
Y114851D01*
Y114698D01*
Y114546D01*
Y114394D01*
Y114241D01*
Y114089D01*
Y113936D01*
Y113784D01*
Y113631D01*
Y113479D01*
Y113327D01*
Y113174D01*
Y113022D01*
Y112870D01*
Y112717D01*
Y112565D01*
Y112412D01*
Y112260D01*
Y112107D01*
Y111955D01*
Y111803D01*
Y111650D01*
Y111498D01*
Y111346D01*
Y111193D01*
Y111041D01*
Y110888D01*
Y110736D01*
Y110583D01*
Y110431D01*
Y110279D01*
Y110126D01*
Y109974D01*
Y109822D01*
Y109669D01*
Y109517D01*
Y109364D01*
Y109212D01*
Y109059D01*
Y108907D01*
Y108755D01*
Y108602D01*
Y108450D01*
Y108298D01*
Y108145D01*
Y107993D01*
Y107840D01*
Y107688D01*
Y107535D01*
Y107383D01*
Y107231D01*
Y107078D01*
Y106926D01*
Y106774D01*
Y106621D01*
Y106469D01*
Y106316D01*
Y106164D01*
Y106011D01*
Y105859D01*
Y105707D01*
Y105554D01*
X145489D01*
Y105402D01*
Y105250D01*
Y105097D01*
Y104945D01*
Y104792D01*
Y104640D01*
Y104487D01*
Y104335D01*
Y104183D01*
Y104030D01*
Y103878D01*
Y103726D01*
Y103573D01*
Y103421D01*
Y103268D01*
Y103116D01*
Y102963D01*
Y102811D01*
Y102659D01*
Y102506D01*
Y102354D01*
Y102201D01*
Y102049D01*
Y101897D01*
Y101744D01*
Y101592D01*
Y101440D01*
Y101287D01*
Y101135D01*
Y100982D01*
Y100830D01*
Y100677D01*
Y100525D01*
Y100373D01*
Y100220D01*
Y100068D01*
Y99916D01*
Y99763D01*
Y99611D01*
Y99458D01*
Y99306D01*
Y99153D01*
Y99001D01*
Y98849D01*
Y98696D01*
Y98544D01*
Y98392D01*
Y98239D01*
Y98087D01*
Y97934D01*
Y97782D01*
Y97629D01*
Y97477D01*
Y97325D01*
Y97172D01*
Y97020D01*
Y96868D01*
Y96715D01*
Y96563D01*
Y96410D01*
Y96258D01*
Y96105D01*
Y95953D01*
Y95801D01*
Y95648D01*
Y95496D01*
Y95344D01*
Y95191D01*
Y95039D01*
Y94886D01*
Y94734D01*
Y94581D01*
Y94429D01*
Y94277D01*
Y94124D01*
Y93972D01*
Y93820D01*
Y93667D01*
Y93515D01*
Y93362D01*
Y93210D01*
Y93057D01*
Y92905D01*
Y92753D01*
Y92600D01*
Y92448D01*
Y92296D01*
Y92143D01*
Y91991D01*
Y91838D01*
Y91686D01*
Y91533D01*
Y91381D01*
Y91229D01*
Y91076D01*
Y90924D01*
Y90772D01*
Y90619D01*
Y90467D01*
Y90314D01*
Y90162D01*
Y90009D01*
Y89857D01*
X145337D01*
Y89705D01*
X142746D01*
Y89857D01*
X142136D01*
Y90009D01*
X141832D01*
Y90162D01*
X141679D01*
Y90314D01*
X141527D01*
Y90467D01*
X141222D01*
Y90619D01*
Y90772D01*
X141070D01*
Y90924D01*
X140917D01*
Y91076D01*
Y91229D01*
X140765D01*
Y91381D01*
X140612D01*
Y91533D01*
Y91686D01*
X140460D01*
Y91838D01*
Y91991D01*
X140308D01*
Y92143D01*
Y92296D01*
X140155D01*
Y92448D01*
X140003D01*
Y92600D01*
Y92753D01*
X139851D01*
Y92905D01*
Y93057D01*
X139698D01*
Y93210D01*
X139546D01*
Y93362D01*
Y93515D01*
X139393D01*
Y93667D01*
Y93820D01*
X139241D01*
Y93972D01*
Y94124D01*
X139088D01*
Y94277D01*
X138936D01*
Y94429D01*
Y94581D01*
X138784D01*
Y94734D01*
Y94886D01*
X138631D01*
Y95039D01*
Y95191D01*
X138479D01*
Y95344D01*
X138327D01*
Y95496D01*
Y95648D01*
X138174D01*
Y95801D01*
Y95953D01*
X138022D01*
Y96105D01*
Y96258D01*
X137869D01*
Y96410D01*
X137717D01*
Y96563D01*
Y96715D01*
X137564D01*
Y96868D01*
Y97020D01*
X137412D01*
Y97172D01*
X137260D01*
Y97325D01*
Y97477D01*
X137107D01*
Y97629D01*
Y97782D01*
X136955D01*
Y97934D01*
Y98087D01*
X136803D01*
Y98239D01*
X136650D01*
Y98392D01*
Y98544D01*
X136498D01*
Y98696D01*
Y98849D01*
X136345D01*
Y99001D01*
Y99153D01*
X136193D01*
Y99306D01*
X136040D01*
Y99458D01*
Y99611D01*
X135888D01*
Y99763D01*
Y99916D01*
X135736D01*
Y100068D01*
Y100220D01*
X135583D01*
Y100373D01*
X135431D01*
Y100525D01*
Y100677D01*
X135279D01*
Y100830D01*
Y100982D01*
X135126D01*
Y101135D01*
Y101287D01*
X134974D01*
Y101440D01*
X134821D01*
Y101592D01*
Y101744D01*
X134669D01*
Y101897D01*
Y102049D01*
X134516D01*
Y102201D01*
Y102354D01*
X134364D01*
Y102506D01*
X134212D01*
Y102659D01*
Y102811D01*
X134059D01*
Y102963D01*
Y103116D01*
X133907D01*
Y103268D01*
X133755D01*
Y103421D01*
Y103573D01*
X133602D01*
Y103726D01*
Y103878D01*
X133450D01*
Y104030D01*
Y104183D01*
X133297D01*
Y104335D01*
X133145D01*
Y104487D01*
Y104640D01*
X132992D01*
Y104792D01*
Y104945D01*
X132840D01*
Y105097D01*
Y105250D01*
X132688D01*
Y105402D01*
X132535D01*
Y105554D01*
Y105707D01*
X132383D01*
Y105859D01*
Y106011D01*
X132231D01*
Y106164D01*
Y106316D01*
X132078D01*
Y106469D01*
X131926D01*
Y106621D01*
Y106774D01*
X131773D01*
Y106926D01*
Y107078D01*
X131621D01*
Y107231D01*
Y107383D01*
X131468D01*
Y107535D01*
Y107688D01*
Y107840D01*
Y107993D01*
Y108145D01*
Y108298D01*
Y108450D01*
Y108602D01*
Y108755D01*
Y108907D01*
X131621D01*
Y109059D01*
Y109212D01*
Y109364D01*
X131773D01*
Y109517D01*
Y109669D01*
X131926D01*
Y109822D01*
X132078D01*
Y109974D01*
Y110126D01*
X132231D01*
Y110279D01*
Y110431D01*
X132383D01*
Y110583D01*
Y110736D01*
X132535D01*
Y110888D01*
X132688D01*
Y111041D01*
Y111193D01*
X132840D01*
Y111346D01*
Y111498D01*
X132992D01*
Y111650D01*
X133145D01*
Y111803D01*
Y111955D01*
X133297D01*
Y112107D01*
Y112260D01*
X133450D01*
Y112412D01*
Y112565D01*
X133602D01*
Y112717D01*
X133755D01*
Y112870D01*
Y113022D01*
X133907D01*
Y113174D01*
Y113327D01*
X134059D01*
Y113479D01*
Y113631D01*
X134212D01*
Y113784D01*
X134364D01*
Y113936D01*
Y114089D01*
X134516D01*
Y114241D01*
X134669D01*
Y114394D01*
Y114546D01*
X134821D01*
Y114698D01*
Y114851D01*
X134974D01*
Y115003D01*
Y115155D01*
X135126D01*
Y115308D01*
X135279D01*
Y115460D01*
Y115613D01*
X135431D01*
Y115765D01*
Y115918D01*
X135583D01*
Y116070D01*
Y116222D01*
X135736D01*
Y116375D01*
X135888D01*
Y116527D01*
Y116679D01*
X136040D01*
Y116832D01*
Y116984D01*
X136193D01*
Y117137D01*
Y117289D01*
X136345D01*
Y117442D01*
X136498D01*
Y117594D01*
Y117746D01*
X136650D01*
Y117899D01*
Y118051D01*
X136803D01*
Y118203D01*
X136955D01*
Y118356D01*
Y118508D01*
X137107D01*
Y118661D01*
Y118813D01*
X137260D01*
Y118966D01*
Y119118D01*
X137412D01*
Y119270D01*
X137564D01*
Y119423D01*
Y119575D01*
X137717D01*
Y119727D01*
Y119880D01*
X137869D01*
Y120032D01*
Y120185D01*
X138022D01*
Y120337D01*
X138174D01*
Y120490D01*
Y120642D01*
X138327D01*
Y120794D01*
Y120947D01*
X138479D01*
Y121099D01*
Y121251D01*
X138631D01*
Y121404D01*
X138784D01*
Y121556D01*
Y121709D01*
X138936D01*
Y121861D01*
Y122014D01*
X139088D01*
Y122166D01*
X139241D01*
Y122318D01*
Y122471D01*
X139393D01*
Y122623D01*
Y122775D01*
X139546D01*
Y122928D01*
Y123080D01*
X139698D01*
Y123233D01*
X139851D01*
Y123385D01*
Y123538D01*
X140003D01*
Y123690D01*
Y123842D01*
X140155D01*
Y123995D01*
Y124147D01*
X140308D01*
Y124299D01*
X140460D01*
Y124452D01*
Y124604D01*
X140612D01*
Y124757D01*
Y124909D01*
X140765D01*
Y125062D01*
Y125214D01*
X140917D01*
Y125366D01*
X141070D01*
Y125519D01*
Y125671D01*
X141222D01*
Y125823D01*
X141375D01*
Y125976D01*
X141527D01*
Y126128D01*
X141832D01*
Y126281D01*
X142136D01*
Y126433D01*
X142441D01*
Y126586D01*
X155852D01*
Y126433D01*
D02*
G37*
G36*
X162101D02*
X162558D01*
Y126281D01*
X162863D01*
Y126128D01*
X163015D01*
Y125976D01*
X163168D01*
Y125823D01*
X163320D01*
Y125671D01*
X163472D01*
Y125519D01*
X163625D01*
Y125366D01*
X163777D01*
Y125214D01*
Y125062D01*
X163930D01*
Y124909D01*
Y124757D01*
X164082D01*
Y124604D01*
Y124452D01*
X164235D01*
Y124299D01*
X164387D01*
Y124147D01*
Y123995D01*
X164539D01*
Y123842D01*
Y123690D01*
X164692D01*
Y123538D01*
X164844D01*
Y123385D01*
Y123233D01*
X164996D01*
Y123080D01*
Y122928D01*
X165149D01*
Y122775D01*
Y122623D01*
X165301D01*
Y122471D01*
X165454D01*
Y122318D01*
Y122166D01*
X165606D01*
Y122014D01*
Y121861D01*
X165758D01*
Y121709D01*
Y121556D01*
X165911D01*
Y121404D01*
X166063D01*
Y121251D01*
Y121099D01*
X166216D01*
Y120947D01*
Y120794D01*
X166368D01*
Y120642D01*
Y120490D01*
X166521D01*
Y120337D01*
X166673D01*
Y120185D01*
Y120032D01*
X166825D01*
Y119880D01*
Y119727D01*
X166978D01*
Y119575D01*
X167130D01*
Y119423D01*
Y119270D01*
X167283D01*
Y119118D01*
Y118966D01*
X167435D01*
Y118813D01*
Y118661D01*
X167587D01*
Y118508D01*
X167740D01*
Y118356D01*
Y118203D01*
X167892D01*
Y118051D01*
Y117899D01*
X168044D01*
Y117746D01*
Y117594D01*
X168197D01*
Y117442D01*
X168349D01*
Y117289D01*
Y117137D01*
X168502D01*
Y116984D01*
Y116832D01*
X168654D01*
Y116679D01*
Y116527D01*
X168806D01*
Y116375D01*
X168959D01*
Y116222D01*
Y116070D01*
X169111D01*
Y115918D01*
Y115765D01*
X169264D01*
Y115613D01*
X169416D01*
Y115460D01*
Y115308D01*
X169569D01*
Y115155D01*
Y115003D01*
X169721D01*
Y114851D01*
Y114698D01*
X169873D01*
Y114546D01*
X170026D01*
Y114394D01*
Y114241D01*
X170178D01*
Y114089D01*
Y113936D01*
X170331D01*
Y113784D01*
Y113631D01*
X170483D01*
Y113479D01*
X170635D01*
Y113327D01*
Y113174D01*
X170788D01*
Y113022D01*
Y112870D01*
X170940D01*
Y112717D01*
Y112565D01*
X171092D01*
Y112412D01*
X171245D01*
Y112260D01*
Y112107D01*
X171397D01*
Y111955D01*
Y111803D01*
X171550D01*
Y111650D01*
X171702D01*
Y111498D01*
Y111346D01*
X171854D01*
Y111193D01*
Y111041D01*
X172007D01*
Y110888D01*
Y110736D01*
X172159D01*
Y110583D01*
X172312D01*
Y110431D01*
Y110279D01*
X172464D01*
Y110126D01*
Y109974D01*
X172617D01*
Y109822D01*
Y109669D01*
X172769D01*
Y109517D01*
X172921D01*
Y109364D01*
Y109212D01*
X173074D01*
Y109059D01*
Y108907D01*
Y108755D01*
Y108602D01*
X173226D01*
Y108450D01*
Y108298D01*
Y108145D01*
Y107993D01*
Y107840D01*
X173074D01*
Y107688D01*
Y107535D01*
Y107383D01*
Y107231D01*
X172921D01*
Y107078D01*
Y106926D01*
X172769D01*
Y106774D01*
Y106621D01*
X172617D01*
Y106469D01*
Y106316D01*
X172464D01*
Y106164D01*
X172312D01*
Y106011D01*
Y105859D01*
X172159D01*
Y105707D01*
Y105554D01*
X172007D01*
Y105402D01*
X171854D01*
Y105250D01*
Y105097D01*
X171702D01*
Y104945D01*
Y104792D01*
X171550D01*
Y104640D01*
Y104487D01*
X171397D01*
Y104335D01*
X171245D01*
Y104183D01*
Y104030D01*
X171092D01*
Y103878D01*
Y103726D01*
X170940D01*
Y103573D01*
Y103421D01*
X170788D01*
Y103268D01*
X170635D01*
Y103116D01*
Y102963D01*
X170483D01*
Y102811D01*
Y102659D01*
X170331D01*
Y102506D01*
X170178D01*
Y102354D01*
Y102201D01*
X170026D01*
Y102049D01*
Y101897D01*
X169873D01*
Y101744D01*
Y101592D01*
X169721D01*
Y101440D01*
X169569D01*
Y101287D01*
Y101135D01*
X169416D01*
Y100982D01*
Y100830D01*
X169264D01*
Y100677D01*
Y100525D01*
X169111D01*
Y100373D01*
X168959D01*
Y100220D01*
Y100068D01*
X168806D01*
Y99916D01*
Y99763D01*
X168654D01*
Y99611D01*
X168502D01*
Y99458D01*
Y99306D01*
X168349D01*
Y99153D01*
Y99001D01*
X168197D01*
Y98849D01*
Y98696D01*
X168044D01*
Y98544D01*
X167892D01*
Y98392D01*
Y98239D01*
X167740D01*
Y98087D01*
Y97934D01*
X167587D01*
Y97782D01*
Y97629D01*
X167435D01*
Y97477D01*
Y97325D01*
X167283D01*
Y97172D01*
Y97020D01*
X167130D01*
Y96868D01*
X166978D01*
Y96715D01*
Y96563D01*
X166825D01*
Y96410D01*
Y96258D01*
X166673D01*
Y96105D01*
X166521D01*
Y95953D01*
Y95801D01*
X166368D01*
Y95648D01*
Y95496D01*
X166216D01*
Y95344D01*
Y95191D01*
X166063D01*
Y95039D01*
X165911D01*
Y94886D01*
Y94734D01*
X165758D01*
Y94581D01*
Y94429D01*
X165606D01*
Y94277D01*
Y94124D01*
X165454D01*
Y93972D01*
X165301D01*
Y93820D01*
Y93667D01*
X165149D01*
Y93515D01*
Y93362D01*
X164996D01*
Y93210D01*
Y93057D01*
X164844D01*
Y92905D01*
X164692D01*
Y92753D01*
Y92600D01*
X164539D01*
Y92448D01*
Y92296D01*
X164387D01*
Y92143D01*
Y91991D01*
X164235D01*
Y91838D01*
X164082D01*
Y91686D01*
Y91533D01*
X163930D01*
Y91381D01*
Y91229D01*
X163777D01*
Y91076D01*
X163625D01*
Y90924D01*
Y90772D01*
X163472D01*
Y90619D01*
X163320D01*
Y90467D01*
X163168D01*
Y90314D01*
X163015D01*
Y90162D01*
X162710D01*
Y90009D01*
X162406D01*
Y89857D01*
X161949D01*
Y89705D01*
X148842D01*
Y89857D01*
X148690D01*
Y90009D01*
Y90162D01*
Y90314D01*
Y90467D01*
Y90619D01*
Y90772D01*
Y90924D01*
Y91076D01*
Y91229D01*
Y91381D01*
Y91533D01*
Y91686D01*
Y91838D01*
Y91991D01*
Y92143D01*
Y92296D01*
Y92448D01*
Y92600D01*
Y92753D01*
Y92905D01*
Y93057D01*
Y93210D01*
Y93362D01*
Y93515D01*
Y93667D01*
Y93820D01*
Y93972D01*
Y94124D01*
Y94277D01*
Y94429D01*
Y94581D01*
Y94734D01*
Y94886D01*
Y95039D01*
Y95191D01*
Y95344D01*
Y95496D01*
Y95648D01*
Y95801D01*
Y95953D01*
Y96105D01*
Y96258D01*
Y96410D01*
Y96563D01*
Y96715D01*
Y96868D01*
Y97020D01*
Y97172D01*
Y97325D01*
Y97477D01*
Y97629D01*
Y97782D01*
Y97934D01*
Y98087D01*
Y98239D01*
Y98392D01*
Y98544D01*
Y98696D01*
Y98849D01*
Y99001D01*
Y99153D01*
Y99306D01*
Y99458D01*
Y99611D01*
Y99763D01*
Y99916D01*
Y100068D01*
Y100220D01*
Y100373D01*
Y100525D01*
Y100677D01*
Y100830D01*
Y100982D01*
Y101135D01*
Y101287D01*
Y101440D01*
Y101592D01*
Y101744D01*
Y101897D01*
Y102049D01*
Y102201D01*
Y102354D01*
Y102506D01*
Y102659D01*
Y102811D01*
Y102963D01*
Y103116D01*
Y103268D01*
Y103421D01*
Y103573D01*
Y103726D01*
Y103878D01*
Y104030D01*
Y104183D01*
Y104335D01*
Y104487D01*
Y104640D01*
Y104792D01*
Y104945D01*
Y105097D01*
Y105250D01*
Y105402D01*
Y105554D01*
Y105707D01*
Y105859D01*
Y106011D01*
Y106164D01*
Y106316D01*
X148842D01*
Y106469D01*
X155852D01*
Y106316D01*
Y106164D01*
Y106011D01*
Y105859D01*
Y105707D01*
Y105554D01*
Y105402D01*
Y105250D01*
Y105097D01*
Y104945D01*
Y104792D01*
Y104640D01*
Y104487D01*
Y104335D01*
Y104183D01*
Y104030D01*
Y103878D01*
Y103726D01*
Y103573D01*
Y103421D01*
Y103268D01*
Y103116D01*
Y102963D01*
Y102811D01*
Y102659D01*
Y102506D01*
Y102354D01*
Y102201D01*
Y102049D01*
Y101897D01*
Y101744D01*
Y101592D01*
Y101440D01*
Y101287D01*
Y101135D01*
Y100982D01*
Y100830D01*
Y100677D01*
Y100525D01*
Y100373D01*
X156005D01*
Y100220D01*
Y100068D01*
Y99916D01*
Y99763D01*
Y99611D01*
Y99458D01*
Y99306D01*
Y99153D01*
Y99001D01*
Y98849D01*
Y98696D01*
Y98544D01*
Y98392D01*
Y98239D01*
Y98087D01*
Y97934D01*
Y97782D01*
Y97629D01*
Y97477D01*
X156157D01*
Y97325D01*
X156310D01*
Y97172D01*
Y97020D01*
X156615D01*
Y96868D01*
X156767D01*
Y96715D01*
X157224D01*
Y96563D01*
X157986D01*
Y96715D01*
X158291D01*
Y96868D01*
X158596D01*
Y97020D01*
X158748D01*
Y97172D01*
X158900D01*
Y97325D01*
X159053D01*
Y97477D01*
Y97629D01*
Y97782D01*
X159205D01*
Y97934D01*
Y98087D01*
Y98239D01*
Y98392D01*
Y98544D01*
Y98696D01*
Y98849D01*
Y99001D01*
Y99153D01*
Y99306D01*
Y99458D01*
Y99611D01*
Y99763D01*
Y99916D01*
Y100068D01*
Y100220D01*
Y100373D01*
Y100525D01*
Y100677D01*
Y100830D01*
Y100982D01*
Y101135D01*
Y101287D01*
Y101440D01*
Y101592D01*
Y101744D01*
Y101897D01*
Y102049D01*
Y102201D01*
Y102354D01*
Y102506D01*
Y102659D01*
Y102811D01*
Y102963D01*
Y103116D01*
Y103268D01*
Y103421D01*
Y103573D01*
Y103726D01*
Y103878D01*
Y104030D01*
Y104183D01*
Y104335D01*
Y104487D01*
Y104640D01*
Y104792D01*
Y104945D01*
Y105097D01*
Y105250D01*
Y105402D01*
Y105554D01*
Y105707D01*
Y105859D01*
Y106011D01*
Y106164D01*
Y106316D01*
Y106469D01*
Y106621D01*
Y106774D01*
Y106926D01*
Y107078D01*
Y107231D01*
Y107383D01*
Y107535D01*
Y107688D01*
Y107840D01*
Y107993D01*
Y108145D01*
Y108298D01*
Y108450D01*
Y108602D01*
Y108755D01*
Y108907D01*
Y109059D01*
Y109212D01*
Y109364D01*
Y109517D01*
Y109669D01*
Y109822D01*
Y109974D01*
Y110126D01*
Y110279D01*
Y110431D01*
Y110583D01*
Y110736D01*
Y110888D01*
Y111041D01*
Y111193D01*
Y111346D01*
Y111498D01*
Y111650D01*
Y111803D01*
Y111955D01*
Y112107D01*
Y112260D01*
Y112412D01*
Y112565D01*
Y112717D01*
Y112870D01*
Y113022D01*
Y113174D01*
Y113327D01*
Y113479D01*
Y113631D01*
Y113784D01*
Y113936D01*
Y114089D01*
Y114241D01*
Y114394D01*
Y114546D01*
Y114698D01*
Y114851D01*
Y115003D01*
Y115155D01*
Y115308D01*
Y115460D01*
Y115613D01*
Y115765D01*
Y115918D01*
Y116070D01*
Y116222D01*
Y116375D01*
Y116527D01*
Y116679D01*
Y116832D01*
Y116984D01*
Y117137D01*
Y117289D01*
Y117442D01*
Y117594D01*
Y117746D01*
Y117899D01*
Y118051D01*
Y118203D01*
Y118356D01*
Y118508D01*
Y118661D01*
Y118813D01*
Y118966D01*
Y119118D01*
Y119270D01*
Y119423D01*
Y119575D01*
Y119727D01*
Y119880D01*
Y120032D01*
Y120185D01*
Y120337D01*
Y120490D01*
Y120642D01*
Y120794D01*
Y120947D01*
Y121099D01*
Y121251D01*
Y121404D01*
Y121556D01*
Y121709D01*
Y121861D01*
Y122014D01*
Y122166D01*
Y122318D01*
Y122471D01*
Y122623D01*
Y122775D01*
Y122928D01*
Y123080D01*
Y123233D01*
Y123385D01*
Y123538D01*
Y123690D01*
Y123842D01*
Y123995D01*
Y124147D01*
Y124299D01*
Y124452D01*
Y124604D01*
Y124757D01*
Y124909D01*
Y125062D01*
Y125214D01*
Y125366D01*
Y125519D01*
Y125671D01*
Y125823D01*
Y125976D01*
Y126128D01*
Y126281D01*
Y126433D01*
Y126586D01*
X162101D01*
Y126433D01*
D02*
G37*
G36*
X199476Y50791D02*
X196936D01*
Y54601D01*
X199476D01*
Y50791D01*
D02*
G37*
G36*
X108744Y18290D02*
X106204D01*
Y22101D01*
X108744D01*
Y18290D01*
D02*
G37*
G36*
X-70272Y-11325D02*
X-70275Y-11361D01*
X-70278Y-11404D01*
X-70280Y-11449D01*
X-70283Y-11500D01*
X-70294Y-11607D01*
X-70309Y-11717D01*
X-70320Y-11770D01*
X-70331Y-11821D01*
X-70345Y-11869D01*
X-70362Y-11914D01*
Y-11917D01*
X-70365Y-11925D01*
X-70371Y-11937D01*
X-70379Y-11951D01*
X-70390Y-11970D01*
X-70402Y-11993D01*
X-70433Y-12044D01*
X-70475Y-12100D01*
X-70500Y-12131D01*
X-70528Y-12162D01*
X-70560Y-12190D01*
X-70596Y-12221D01*
X-70633Y-12249D01*
X-70672Y-12275D01*
X-70675Y-12278D01*
X-70684Y-12280D01*
X-70695Y-12286D01*
X-70712Y-12297D01*
X-70732Y-12306D01*
X-70757Y-12317D01*
X-70785Y-12331D01*
X-70816Y-12342D01*
X-70850Y-12357D01*
X-70887Y-12368D01*
X-70971Y-12390D01*
X-71061Y-12405D01*
X-71109Y-12407D01*
X-71160Y-12410D01*
X-71163D01*
X-71174D01*
X-71194D01*
X-71217Y-12407D01*
X-71248Y-12405D01*
X-71281Y-12399D01*
X-71321Y-12390D01*
X-71363Y-12382D01*
X-71405Y-12371D01*
X-71453Y-12357D01*
X-71501Y-12337D01*
X-71552Y-12314D01*
X-71600Y-12289D01*
X-71651Y-12258D01*
X-71699Y-12224D01*
X-71744Y-12185D01*
X-71747Y-12182D01*
X-71755Y-12173D01*
X-71766Y-12162D01*
X-71780Y-12142D01*
X-71800Y-12120D01*
X-71823Y-12089D01*
X-71845Y-12055D01*
X-71871Y-12015D01*
X-71896Y-11970D01*
X-71921Y-11920D01*
X-71947Y-11860D01*
X-71969Y-11798D01*
X-71992Y-11731D01*
X-72011Y-11657D01*
X-72028Y-11578D01*
X-72043Y-11494D01*
Y-11497D01*
X-72045Y-11502D01*
X-72051Y-11511D01*
X-72057Y-11522D01*
X-72074Y-11553D01*
X-72093Y-11590D01*
X-72119Y-11632D01*
X-72147Y-11677D01*
X-72175Y-11717D01*
X-72206Y-11753D01*
X-72209Y-11756D01*
X-72214Y-11762D01*
X-72223Y-11773D01*
X-72237Y-11784D01*
X-72254Y-11801D01*
X-72274Y-11821D01*
X-72296Y-11844D01*
X-72325Y-11869D01*
X-72355Y-11894D01*
X-72386Y-11922D01*
X-72460Y-11982D01*
X-72544Y-12047D01*
X-72637Y-12109D01*
X-73523Y-12672D01*
Y-12134D01*
X-72846Y-11705D01*
X-72843Y-11703D01*
X-72832Y-11697D01*
X-72818Y-11688D01*
X-72798Y-11674D01*
X-72773Y-11657D01*
X-72745Y-11640D01*
X-72714Y-11618D01*
X-72683Y-11595D01*
X-72609Y-11547D01*
X-72536Y-11494D01*
X-72466Y-11443D01*
X-72432Y-11418D01*
X-72401Y-11395D01*
X-72398D01*
X-72395Y-11389D01*
X-72386Y-11384D01*
X-72375Y-11375D01*
X-72347Y-11353D01*
X-72313Y-11322D01*
X-72279Y-11288D01*
X-72243Y-11251D01*
X-72209Y-11212D01*
X-72183Y-11175D01*
X-72181Y-11172D01*
X-72172Y-11158D01*
X-72164Y-11139D01*
X-72150Y-11116D01*
X-72136Y-11085D01*
X-72122Y-11054D01*
X-72107Y-11017D01*
X-72096Y-10981D01*
Y-10978D01*
X-72093Y-10967D01*
X-72091Y-10950D01*
X-72088Y-10924D01*
X-72085Y-10891D01*
X-72082Y-10848D01*
X-72079Y-10800D01*
Y-10245D01*
X-73523D01*
Y-9814D01*
X-70272D01*
Y-11325D01*
D02*
G37*
G36*
X-71076Y-13231D02*
X-71070Y-13242D01*
X-71061Y-13262D01*
X-71050Y-13284D01*
X-71036Y-13312D01*
X-71016Y-13346D01*
X-70997Y-13383D01*
X-70971Y-13425D01*
X-70946Y-13470D01*
X-70915Y-13515D01*
X-70850Y-13614D01*
X-70777Y-13715D01*
X-70698Y-13811D01*
X-70695Y-13814D01*
X-70686Y-13823D01*
X-70675Y-13834D01*
X-70658Y-13854D01*
X-70638Y-13873D01*
X-70616Y-13896D01*
X-70588Y-13921D01*
X-70560Y-13950D01*
X-70492Y-14009D01*
X-70419Y-14068D01*
X-70340Y-14122D01*
X-70300Y-14147D01*
X-70261Y-14167D01*
Y-14426D01*
X-73523D01*
Y-14026D01*
X-70982D01*
X-70985Y-14023D01*
X-70988Y-14020D01*
X-70997Y-14012D01*
X-71005Y-14000D01*
X-71019Y-13983D01*
X-71033Y-13966D01*
X-71050Y-13947D01*
X-71070Y-13924D01*
X-71109Y-13868D01*
X-71157Y-13803D01*
X-71208Y-13730D01*
X-71259Y-13645D01*
X-71262Y-13642D01*
X-71264Y-13634D01*
X-71273Y-13622D01*
X-71281Y-13606D01*
X-71293Y-13586D01*
X-71304Y-13563D01*
X-71321Y-13535D01*
X-71335Y-13507D01*
X-71369Y-13442D01*
X-71403Y-13372D01*
X-71436Y-13298D01*
X-71465Y-13228D01*
X-71078D01*
X-71076Y-13231D01*
D02*
G37*
G36*
X-97186Y18636D02*
X-100054D01*
Y17035D01*
X-100437D01*
Y19067D01*
X-97186D01*
Y18636D01*
D02*
G37*
G36*
Y14165D02*
X-97570D01*
Y16085D01*
X-98562D01*
Y14286D01*
X-98946D01*
Y16085D01*
X-100054D01*
Y14088D01*
X-100437D01*
Y16516D01*
X-97186D01*
Y14165D01*
D02*
G37*
G36*
Y12281D02*
X-97189Y12244D01*
Y12205D01*
X-97192Y12160D01*
X-97198Y12067D01*
X-97206Y11971D01*
X-97217Y11878D01*
X-97226Y11836D01*
X-97234Y11796D01*
Y11793D01*
X-97237Y11785D01*
X-97240Y11768D01*
X-97245Y11748D01*
X-97254Y11726D01*
X-97262Y11698D01*
X-97274Y11667D01*
X-97288Y11633D01*
X-97319Y11557D01*
X-97361Y11478D01*
X-97409Y11396D01*
X-97468Y11320D01*
X-97471Y11317D01*
X-97479Y11308D01*
X-97491Y11294D01*
X-97508Y11278D01*
X-97527Y11255D01*
X-97556Y11232D01*
X-97584Y11204D01*
X-97618Y11176D01*
X-97657Y11145D01*
X-97699Y11114D01*
X-97745Y11080D01*
X-97795Y11049D01*
X-97846Y11018D01*
X-97902Y10990D01*
X-97962Y10962D01*
X-98024Y10936D01*
X-98026Y10934D01*
X-98038Y10931D01*
X-98057Y10925D01*
X-98083Y10917D01*
X-98117Y10905D01*
X-98153Y10894D01*
X-98198Y10883D01*
X-98246Y10871D01*
X-98303Y10860D01*
X-98362Y10849D01*
X-98424Y10838D01*
X-98492Y10826D01*
X-98562Y10818D01*
X-98638Y10812D01*
X-98717Y10807D01*
X-98796D01*
X-98799D01*
X-98813D01*
X-98833D01*
X-98858D01*
X-98889Y10810D01*
X-98929Y10812D01*
X-98971Y10815D01*
X-99016Y10818D01*
X-99067Y10821D01*
X-99117Y10829D01*
X-99230Y10843D01*
X-99343Y10866D01*
X-99453Y10894D01*
X-99456D01*
X-99464Y10897D01*
X-99481Y10903D01*
X-99501Y10911D01*
X-99523Y10919D01*
X-99552Y10928D01*
X-99586Y10942D01*
X-99619Y10953D01*
X-99693Y10987D01*
X-99772Y11024D01*
X-99853Y11069D01*
X-99927Y11117D01*
X-99930Y11120D01*
X-99935Y11122D01*
X-99944Y11131D01*
X-99958Y11139D01*
X-99992Y11168D01*
X-100034Y11204D01*
X-100079Y11249D01*
X-100130Y11300D01*
X-100178Y11354D01*
X-100220Y11413D01*
Y11416D01*
X-100226Y11421D01*
X-100231Y11430D01*
X-100237Y11441D01*
X-100245Y11458D01*
X-100257Y11475D01*
X-100268Y11497D01*
X-100279Y11523D01*
X-100307Y11579D01*
X-100333Y11644D01*
X-100361Y11720D01*
X-100383Y11802D01*
Y11805D01*
X-100386Y11813D01*
X-100389Y11824D01*
X-100392Y11841D01*
X-100395Y11864D01*
X-100400Y11889D01*
X-100406Y11918D01*
X-100409Y11951D01*
X-100414Y11988D01*
X-100420Y12027D01*
X-100426Y12072D01*
X-100429Y12118D01*
X-100434Y12216D01*
X-100437Y12323D01*
Y13493D01*
X-97186D01*
Y12281D01*
D02*
G37*
G36*
X-97990Y10068D02*
X-97984Y10057D01*
X-97976Y10037D01*
X-97964Y10014D01*
X-97950Y9986D01*
X-97931Y9952D01*
X-97911Y9916D01*
X-97886Y9873D01*
X-97860Y9828D01*
X-97829Y9783D01*
X-97764Y9685D01*
X-97691Y9583D01*
X-97612Y9487D01*
X-97609Y9484D01*
X-97601Y9476D01*
X-97589Y9465D01*
X-97572Y9445D01*
X-97553Y9425D01*
X-97530Y9403D01*
X-97502Y9377D01*
X-97474Y9349D01*
X-97406Y9290D01*
X-97333Y9231D01*
X-97254Y9177D01*
X-97214Y9152D01*
X-97175Y9132D01*
Y8873D01*
X-100437D01*
Y9273D01*
X-97897D01*
X-97900Y9276D01*
X-97902Y9279D01*
X-97911Y9287D01*
X-97919Y9298D01*
X-97933Y9315D01*
X-97948Y9332D01*
X-97964Y9352D01*
X-97984Y9374D01*
X-98024Y9431D01*
X-98071Y9496D01*
X-98122Y9569D01*
X-98173Y9653D01*
X-98176Y9656D01*
X-98179Y9665D01*
X-98187Y9676D01*
X-98196Y9693D01*
X-98207Y9713D01*
X-98218Y9735D01*
X-98235Y9764D01*
X-98249Y9792D01*
X-98283Y9857D01*
X-98317Y9927D01*
X-98351Y10000D01*
X-98379Y10071D01*
X-97993D01*
X-97990Y10068D01*
D02*
G37*
G36*
X-86305Y44197D02*
X-86271D01*
X-86229Y44191D01*
X-86181Y44186D01*
X-86128Y44180D01*
X-86068Y44169D01*
X-86004Y44155D01*
X-85939Y44138D01*
X-85871Y44118D01*
X-85801Y44093D01*
X-85733Y44065D01*
X-85662Y44031D01*
X-85598Y43994D01*
X-85533Y43949D01*
X-85530Y43946D01*
X-85519Y43938D01*
X-85502Y43924D01*
X-85479Y43904D01*
X-85451Y43879D01*
X-85420Y43848D01*
X-85386Y43811D01*
X-85350Y43769D01*
X-85313Y43721D01*
X-85273Y43670D01*
X-85234Y43611D01*
X-85197Y43549D01*
X-85161Y43481D01*
X-85127Y43411D01*
X-85096Y43332D01*
X-85068Y43250D01*
X-85491Y43151D01*
Y43154D01*
X-85496Y43168D01*
X-85502Y43185D01*
X-85513Y43210D01*
X-85524Y43239D01*
X-85538Y43272D01*
X-85555Y43309D01*
X-85575Y43348D01*
X-85623Y43433D01*
X-85679Y43518D01*
X-85710Y43560D01*
X-85744Y43600D01*
X-85781Y43636D01*
X-85820Y43667D01*
X-85823Y43670D01*
X-85829Y43676D01*
X-85843Y43681D01*
X-85860Y43692D01*
X-85880Y43704D01*
X-85905Y43718D01*
X-85936Y43735D01*
X-85967Y43749D01*
X-86006Y43763D01*
X-86046Y43780D01*
X-86091Y43794D01*
X-86139Y43805D01*
X-86190Y43816D01*
X-86243Y43825D01*
X-86302Y43828D01*
X-86362Y43831D01*
X-86398D01*
X-86424Y43828D01*
X-86458Y43825D01*
X-86494Y43822D01*
X-86537Y43816D01*
X-86582Y43808D01*
X-86629Y43800D01*
X-86680Y43786D01*
X-86731Y43771D01*
X-86785Y43755D01*
X-86835Y43735D01*
X-86889Y43709D01*
X-86940Y43681D01*
X-86988Y43650D01*
X-86990Y43647D01*
X-86999Y43642D01*
X-87010Y43630D01*
X-87027Y43616D01*
X-87050Y43600D01*
X-87072Y43577D01*
X-87098Y43552D01*
X-87126Y43523D01*
X-87154Y43489D01*
X-87185Y43453D01*
X-87213Y43413D01*
X-87241Y43371D01*
X-87269Y43326D01*
X-87295Y43275D01*
X-87320Y43225D01*
X-87340Y43168D01*
Y43165D01*
X-87346Y43154D01*
X-87348Y43137D01*
X-87357Y43117D01*
X-87363Y43089D01*
X-87371Y43055D01*
X-87382Y43019D01*
X-87391Y42976D01*
X-87399Y42931D01*
X-87410Y42883D01*
X-87419Y42833D01*
X-87425Y42779D01*
X-87436Y42663D01*
X-87442Y42545D01*
Y42539D01*
Y42528D01*
Y42505D01*
X-87439Y42474D01*
Y42441D01*
X-87436Y42398D01*
X-87430Y42351D01*
X-87427Y42300D01*
X-87419Y42243D01*
X-87413Y42187D01*
X-87391Y42066D01*
X-87363Y41942D01*
X-87323Y41820D01*
X-87320Y41818D01*
X-87317Y41806D01*
X-87309Y41792D01*
X-87301Y41770D01*
X-87287Y41744D01*
X-87272Y41716D01*
X-87253Y41682D01*
X-87230Y41648D01*
X-87205Y41612D01*
X-87179Y41572D01*
X-87148Y41536D01*
X-87114Y41496D01*
X-87078Y41459D01*
X-87038Y41426D01*
X-86993Y41392D01*
X-86948Y41361D01*
X-86945Y41358D01*
X-86937Y41355D01*
X-86923Y41347D01*
X-86903Y41338D01*
X-86881Y41327D01*
X-86852Y41313D01*
X-86818Y41299D01*
X-86782Y41285D01*
X-86742Y41271D01*
X-86700Y41256D01*
X-86655Y41245D01*
X-86607Y41231D01*
X-86505Y41214D01*
X-86449Y41211D01*
X-86396Y41209D01*
X-86379D01*
X-86362Y41211D01*
X-86336D01*
X-86305Y41214D01*
X-86269Y41220D01*
X-86226Y41226D01*
X-86184Y41234D01*
X-86136Y41245D01*
X-86088Y41259D01*
X-86038Y41276D01*
X-85984Y41296D01*
X-85933Y41319D01*
X-85882Y41347D01*
X-85832Y41378D01*
X-85784Y41414D01*
X-85781Y41417D01*
X-85772Y41423D01*
X-85761Y41437D01*
X-85744Y41454D01*
X-85722Y41476D01*
X-85699Y41502D01*
X-85674Y41533D01*
X-85646Y41569D01*
X-85617Y41612D01*
X-85589Y41657D01*
X-85561Y41708D01*
X-85533Y41764D01*
X-85507Y41823D01*
X-85482Y41888D01*
X-85462Y41959D01*
X-85443Y42032D01*
X-85011Y41925D01*
Y41922D01*
X-85014Y41919D01*
Y41911D01*
X-85017Y41902D01*
X-85025Y41874D01*
X-85037Y41837D01*
X-85054Y41792D01*
X-85073Y41741D01*
X-85096Y41685D01*
X-85124Y41626D01*
X-85155Y41561D01*
X-85189Y41493D01*
X-85228Y41426D01*
X-85273Y41361D01*
X-85324Y41293D01*
X-85378Y41231D01*
X-85434Y41172D01*
X-85499Y41116D01*
X-85502Y41113D01*
X-85516Y41104D01*
X-85536Y41090D01*
X-85561Y41073D01*
X-85595Y41051D01*
X-85637Y41028D01*
X-85685Y41003D01*
X-85739Y40977D01*
X-85798Y40952D01*
X-85863Y40927D01*
X-85933Y40904D01*
X-86009Y40882D01*
X-86091Y40865D01*
X-86176Y40851D01*
X-86266Y40842D01*
X-86359Y40839D01*
X-86381D01*
X-86410Y40842D01*
X-86446D01*
X-86491Y40845D01*
X-86542Y40851D01*
X-86599Y40856D01*
X-86663Y40865D01*
X-86728Y40876D01*
X-86799Y40890D01*
X-86869Y40907D01*
X-86940Y40929D01*
X-87013Y40952D01*
X-87081Y40980D01*
X-87148Y41014D01*
X-87213Y41051D01*
X-87216Y41054D01*
X-87227Y41062D01*
X-87244Y41073D01*
X-87267Y41090D01*
X-87295Y41113D01*
X-87326Y41141D01*
X-87363Y41172D01*
X-87399Y41209D01*
X-87439Y41251D01*
X-87481Y41296D01*
X-87523Y41347D01*
X-87563Y41403D01*
X-87605Y41462D01*
X-87645Y41527D01*
X-87681Y41598D01*
X-87715Y41671D01*
X-87718Y41677D01*
X-87724Y41691D01*
X-87732Y41711D01*
X-87740Y41741D01*
X-87754Y41778D01*
X-87769Y41823D01*
X-87783Y41874D01*
X-87800Y41933D01*
X-87816Y41995D01*
X-87831Y42063D01*
X-87845Y42133D01*
X-87859Y42210D01*
X-87867Y42288D01*
X-87876Y42370D01*
X-87881Y42455D01*
X-87884Y42542D01*
Y42545D01*
Y42548D01*
Y42565D01*
Y42593D01*
X-87881Y42627D01*
X-87879Y42672D01*
X-87873Y42723D01*
X-87867Y42779D01*
X-87859Y42844D01*
X-87850Y42912D01*
X-87836Y42982D01*
X-87822Y43055D01*
X-87802Y43129D01*
X-87780Y43205D01*
X-87754Y43281D01*
X-87726Y43354D01*
X-87692Y43428D01*
X-87690Y43433D01*
X-87684Y43444D01*
X-87673Y43464D01*
X-87656Y43489D01*
X-87636Y43520D01*
X-87611Y43557D01*
X-87583Y43597D01*
X-87551Y43642D01*
X-87512Y43687D01*
X-87472Y43735D01*
X-87427Y43783D01*
X-87377Y43831D01*
X-87323Y43876D01*
X-87267Y43921D01*
X-87205Y43963D01*
X-87140Y44003D01*
X-87137Y44005D01*
X-87123Y44011D01*
X-87103Y44019D01*
X-87078Y44034D01*
X-87044Y44048D01*
X-87004Y44065D01*
X-86959Y44084D01*
X-86906Y44101D01*
X-86852Y44121D01*
X-86790Y44138D01*
X-86725Y44155D01*
X-86658Y44169D01*
X-86584Y44183D01*
X-86511Y44191D01*
X-86432Y44197D01*
X-86353Y44200D01*
X-86331D01*
X-86305Y44197D01*
D02*
G37*
G36*
X-82640Y43721D02*
X-83940D01*
X-84115Y42844D01*
X-84112Y42847D01*
X-84101Y42852D01*
X-84086Y42864D01*
X-84064Y42875D01*
X-84036Y42892D01*
X-84005Y42909D01*
X-83968Y42928D01*
X-83929Y42948D01*
X-83883Y42965D01*
X-83835Y42985D01*
X-83785Y43002D01*
X-83731Y43019D01*
X-83675Y43030D01*
X-83618Y43041D01*
X-83559Y43047D01*
X-83500Y43050D01*
X-83480D01*
X-83458Y43047D01*
X-83429Y43044D01*
X-83393Y43041D01*
X-83351Y43033D01*
X-83303Y43024D01*
X-83249Y43013D01*
X-83195Y42996D01*
X-83136Y42976D01*
X-83077Y42954D01*
X-83018Y42926D01*
X-82956Y42892D01*
X-82897Y42852D01*
X-82837Y42807D01*
X-82781Y42754D01*
X-82778Y42751D01*
X-82767Y42740D01*
X-82753Y42723D01*
X-82736Y42700D01*
X-82713Y42672D01*
X-82688Y42635D01*
X-82663Y42596D01*
X-82634Y42548D01*
X-82606Y42497D01*
X-82581Y42438D01*
X-82556Y42376D01*
X-82533Y42308D01*
X-82516Y42238D01*
X-82499Y42162D01*
X-82491Y42080D01*
X-82488Y41995D01*
Y41990D01*
Y41975D01*
X-82491Y41953D01*
Y41922D01*
X-82496Y41882D01*
X-82502Y41840D01*
X-82510Y41789D01*
X-82519Y41736D01*
X-82533Y41677D01*
X-82550Y41615D01*
X-82572Y41553D01*
X-82598Y41488D01*
X-82626Y41423D01*
X-82663Y41358D01*
X-82702Y41293D01*
X-82747Y41231D01*
X-82750Y41226D01*
X-82761Y41214D01*
X-82778Y41195D01*
X-82804Y41169D01*
X-82835Y41141D01*
X-82874Y41107D01*
X-82919Y41070D01*
X-82970Y41037D01*
X-83026Y41000D01*
X-83091Y40963D01*
X-83162Y40929D01*
X-83238Y40901D01*
X-83320Y40876D01*
X-83407Y40856D01*
X-83500Y40845D01*
X-83599Y40839D01*
X-83618D01*
X-83641Y40842D01*
X-83672D01*
X-83709Y40848D01*
X-83754Y40853D01*
X-83802Y40859D01*
X-83855Y40870D01*
X-83912Y40884D01*
X-83971Y40901D01*
X-84030Y40921D01*
X-84092Y40944D01*
X-84151Y40972D01*
X-84211Y41006D01*
X-84270Y41045D01*
X-84323Y41087D01*
X-84326Y41090D01*
X-84335Y41099D01*
X-84349Y41113D01*
X-84368Y41132D01*
X-84388Y41158D01*
X-84413Y41189D01*
X-84439Y41223D01*
X-84467Y41262D01*
X-84495Y41307D01*
X-84523Y41358D01*
X-84552Y41412D01*
X-84574Y41471D01*
X-84597Y41533D01*
X-84616Y41600D01*
X-84631Y41671D01*
X-84642Y41747D01*
X-84222Y41784D01*
Y41781D01*
X-84219Y41770D01*
X-84216Y41756D01*
X-84213Y41733D01*
X-84205Y41708D01*
X-84199Y41677D01*
X-84188Y41646D01*
X-84177Y41609D01*
X-84149Y41533D01*
X-84112Y41457D01*
X-84064Y41383D01*
X-84038Y41350D01*
X-84008Y41319D01*
X-84005Y41316D01*
X-83999Y41313D01*
X-83991Y41304D01*
X-83976Y41296D01*
X-83960Y41285D01*
X-83943Y41271D01*
X-83917Y41256D01*
X-83892Y41242D01*
X-83833Y41214D01*
X-83762Y41189D01*
X-83686Y41172D01*
X-83644Y41169D01*
X-83599Y41166D01*
X-83585D01*
X-83570Y41169D01*
X-83551D01*
X-83525Y41172D01*
X-83497Y41178D01*
X-83463Y41183D01*
X-83429Y41195D01*
X-83390Y41206D01*
X-83351Y41220D01*
X-83311Y41237D01*
X-83272Y41259D01*
X-83229Y41282D01*
X-83187Y41313D01*
X-83148Y41344D01*
X-83111Y41383D01*
X-83108Y41386D01*
X-83103Y41395D01*
X-83091Y41406D01*
X-83080Y41423D01*
X-83066Y41445D01*
X-83049Y41471D01*
X-83029Y41502D01*
X-83009Y41536D01*
X-82992Y41575D01*
X-82973Y41620D01*
X-82956Y41665D01*
X-82942Y41719D01*
X-82930Y41772D01*
X-82919Y41832D01*
X-82914Y41894D01*
X-82911Y41959D01*
Y41961D01*
Y41973D01*
Y41992D01*
X-82914Y42015D01*
X-82916Y42043D01*
X-82922Y42077D01*
X-82928Y42114D01*
X-82933Y42153D01*
X-82959Y42241D01*
X-82973Y42286D01*
X-82992Y42331D01*
X-83012Y42373D01*
X-83040Y42418D01*
X-83069Y42458D01*
X-83103Y42497D01*
X-83105Y42500D01*
X-83111Y42505D01*
X-83122Y42517D01*
X-83136Y42528D01*
X-83156Y42542D01*
X-83179Y42559D01*
X-83207Y42579D01*
X-83238Y42599D01*
X-83272Y42615D01*
X-83311Y42635D01*
X-83351Y42652D01*
X-83396Y42666D01*
X-83444Y42677D01*
X-83494Y42689D01*
X-83551Y42694D01*
X-83607Y42697D01*
X-83638D01*
X-83655Y42694D01*
X-83675Y42692D01*
X-83723Y42686D01*
X-83776Y42675D01*
X-83835Y42661D01*
X-83895Y42638D01*
X-83954Y42610D01*
X-83957D01*
X-83960Y42607D01*
X-83968Y42601D01*
X-83979Y42593D01*
X-84008Y42576D01*
X-84041Y42548D01*
X-84081Y42517D01*
X-84120Y42477D01*
X-84160Y42435D01*
X-84196Y42384D01*
X-84571Y42432D01*
X-84256Y44101D01*
X-82640D01*
Y43721D01*
D02*
G37*
%LPC*%
G36*
X-70630Y-10245D02*
X-71707D01*
Y-11215D01*
X-71704Y-11240D01*
Y-11268D01*
X-71701Y-11299D01*
X-71699Y-11333D01*
X-71693Y-11409D01*
X-71682Y-11485D01*
X-71668Y-11559D01*
X-71659Y-11593D01*
X-71648Y-11626D01*
Y-11629D01*
X-71645Y-11635D01*
X-71642Y-11643D01*
X-71637Y-11655D01*
X-71623Y-11683D01*
X-71600Y-11719D01*
X-71572Y-11762D01*
X-71541Y-11804D01*
X-71498Y-11844D01*
X-71453Y-11880D01*
X-71451D01*
X-71448Y-11883D01*
X-71439Y-11889D01*
X-71431Y-11894D01*
X-71403Y-11908D01*
X-71366Y-11925D01*
X-71321Y-11939D01*
X-71273Y-11953D01*
X-71219Y-11965D01*
X-71160Y-11968D01*
X-71157D01*
X-71149D01*
X-71137D01*
X-71121Y-11965D01*
X-71101Y-11962D01*
X-71078Y-11959D01*
X-71025Y-11948D01*
X-70965Y-11925D01*
X-70935Y-11914D01*
X-70901Y-11897D01*
X-70870Y-11877D01*
X-70839Y-11855D01*
X-70808Y-11829D01*
X-70780Y-11798D01*
X-70777Y-11796D01*
X-70774Y-11790D01*
X-70765Y-11781D01*
X-70757Y-11767D01*
X-70746Y-11748D01*
X-70732Y-11728D01*
X-70717Y-11700D01*
X-70703Y-11672D01*
X-70692Y-11635D01*
X-70678Y-11595D01*
X-70664Y-11553D01*
X-70653Y-11505D01*
X-70644Y-11454D01*
X-70636Y-11398D01*
X-70633Y-11336D01*
X-70630Y-11271D01*
Y-10245D01*
D02*
G37*
G36*
X-97570Y13062D02*
X-100054D01*
Y12315D01*
X-100051Y12290D01*
Y12259D01*
X-100048Y12222D01*
X-100045Y12185D01*
X-100040Y12104D01*
X-100028Y12022D01*
X-100014Y11940D01*
X-100006Y11903D01*
X-99994Y11867D01*
Y11864D01*
X-99992Y11858D01*
X-99989Y11850D01*
X-99983Y11836D01*
X-99969Y11802D01*
X-99952Y11762D01*
X-99927Y11715D01*
X-99899Y11667D01*
X-99865Y11619D01*
X-99825Y11573D01*
X-99822Y11571D01*
X-99817Y11568D01*
X-99808Y11559D01*
X-99797Y11548D01*
X-99783Y11537D01*
X-99763Y11520D01*
X-99741Y11503D01*
X-99718Y11486D01*
X-99690Y11469D01*
X-99659Y11450D01*
X-99625Y11430D01*
X-99588Y11410D01*
X-99507Y11371D01*
X-99416Y11337D01*
X-99414D01*
X-99405Y11334D01*
X-99391Y11328D01*
X-99371Y11323D01*
X-99346Y11317D01*
X-99315Y11308D01*
X-99281Y11300D01*
X-99242Y11292D01*
X-99197Y11286D01*
X-99149Y11278D01*
X-99098Y11269D01*
X-99041Y11263D01*
X-98982Y11258D01*
X-98920Y11252D01*
X-98855Y11249D01*
X-98788D01*
X-98785D01*
X-98782D01*
X-98765D01*
X-98740D01*
X-98703Y11252D01*
X-98661Y11255D01*
X-98613Y11258D01*
X-98556Y11263D01*
X-98497Y11269D01*
X-98435Y11280D01*
X-98373Y11292D01*
X-98306Y11303D01*
X-98241Y11320D01*
X-98179Y11339D01*
X-98117Y11362D01*
X-98057Y11387D01*
X-98004Y11418D01*
X-98001Y11421D01*
X-97993Y11427D01*
X-97978Y11435D01*
X-97959Y11450D01*
X-97936Y11464D01*
X-97914Y11483D01*
X-97886Y11506D01*
X-97854Y11531D01*
X-97795Y11590D01*
X-97733Y11661D01*
X-97705Y11698D01*
X-97680Y11737D01*
X-97657Y11779D01*
X-97637Y11824D01*
Y11827D01*
X-97634Y11833D01*
X-97632Y11841D01*
X-97626Y11858D01*
X-97620Y11875D01*
X-97615Y11898D01*
X-97609Y11926D01*
X-97604Y11957D01*
X-97598Y11994D01*
X-97592Y12036D01*
X-97587Y12081D01*
X-97581Y12132D01*
X-97575Y12185D01*
X-97572Y12244D01*
X-97570Y12309D01*
Y13062D01*
D02*
G37*
%LPD*%
D10*
X185362Y-83151D02*
G03*
X185362Y-83151I-762J0D01*
G01*
X90534Y-74392D02*
G03*
X90534Y-74392I-762J0D01*
G01*
X264184Y-69560D02*
G03*
X264184Y-69560I-762J0D01*
G01*
X74138Y-100194D02*
X77898D01*
X83638Y-83049D02*
X92528D01*
Y-93971D02*
Y-83049D01*
X59508Y-93971D02*
Y-83049D01*
X68398D01*
X177590Y-46956D02*
X187979D01*
X177590Y-67022D02*
Y-46956D01*
X200221D02*
X210610D01*
Y-67022D02*
Y-46956D01*
X190722Y-67022D02*
X197479D01*
X139371Y-63350D02*
X143130D01*
X148870Y-46205D02*
X157760D01*
Y-57127D02*
Y-46205D01*
X124740Y-57127D02*
Y-46205D01*
X133630D01*
X82762Y-38198D02*
X93151D01*
X82762Y-58264D02*
Y-38198D01*
X105394D02*
X115782D01*
Y-58264D02*
Y-38198D01*
X95894Y-58264D02*
X102651D01*
X256412Y-33366D02*
X266801D01*
X256412Y-53432D02*
Y-33366D01*
X279044D02*
X289432D01*
Y-53432D02*
Y-33366D01*
X269544Y-53432D02*
X276301D01*
X172288Y-120126D02*
X176048D01*
X181788Y-102981D02*
X190678D01*
Y-113903D02*
Y-102981D01*
X157658Y-113903D02*
Y-102981D01*
X166548D01*
X46958Y-54894D02*
X50718D01*
X56458Y-37749D02*
X65348D01*
Y-48671D02*
Y-37749D01*
X32328Y-48671D02*
Y-37749D01*
X41218D01*
X235105Y-80866D02*
X238864D01*
X244604Y-63721D02*
X253494D01*
Y-74643D02*
Y-63721D01*
X220474Y-74643D02*
Y-63721D01*
X229364D01*
X182111Y83308D02*
Y85716D01*
X123570Y176D02*
Y2583D01*
Y83308D02*
Y85716D01*
X182111D01*
Y176D02*
Y2583D01*
X123570Y176D02*
X182111D01*
X126686Y-109556D02*
X130446D01*
X136186Y-92411D02*
X145076D01*
Y-103333D02*
Y-92411D01*
X112056Y-103333D02*
Y-92411D01*
X120946D01*
D11*
X43946Y-657D02*
G03*
X43946Y-657I-1000J0D01*
G01*
X-25201Y29339D02*
X-11202D01*
X-7702Y-161D02*
Y28839D01*
Y-161D02*
X-3701D01*
Y28839D01*
X-7702D02*
X-3701D01*
X-258423Y-12949D02*
Y57611D01*
Y-12949D02*
X-183423D01*
Y57611D01*
X-258423D02*
X-183423D01*
X-90806Y-19160D02*
Y-1160D01*
X-106806Y-19160D02*
Y-1160D01*
X-167278Y-106354D02*
Y-79654D01*
X-194578Y-106354D02*
Y-79654D01*
Y-106354D02*
X-114579D01*
Y-79654D01*
X-194578D02*
X-114579D01*
D12*
X-178424Y22051D02*
G03*
X-178424Y23051I0J500D01*
G01*
D02*
G03*
X-178424Y22051I0J-500D01*
G01*
X-76125Y13856D02*
Y34605D01*
X-87126Y14105D02*
Y34605D01*
D13*
X-97556Y-27410D02*
G03*
X-97556Y-27410I-1250J0D01*
G01*
X-178728Y-111253D02*
G03*
X-178728Y-111253I-1250J0D01*
G01*
D14*
X222791Y102950D02*
Y108950D01*
X65185Y44890D02*
X71185D01*
X72598Y18027D02*
Y24027D01*
X78811Y44489D02*
X84811D01*
X47952Y46184D02*
X53952D01*
X99896Y-103005D02*
X105897D01*
X248783Y12662D02*
X254783D01*
X202879Y-110856D02*
X208879D01*
X232777Y-28108D02*
X238777D01*
X36778Y-86092D02*
X42778D01*
X209220Y60046D02*
X215220D01*
X268412Y39238D02*
X274412D01*
X-59862Y-13914D02*
X-53862D01*
X166639Y-25994D02*
X172638D01*
X213146Y13266D02*
X219146D01*
X229757Y13870D02*
X235756D01*
X123151Y-21766D02*
X129151D01*
X224622Y52496D02*
X230622D01*
X-98133Y-53239D02*
X-92133D01*
X231870Y85444D02*
X237870D01*
X265392Y70344D02*
X271392D01*
X73630Y76375D02*
Y82375D01*
X213127Y79092D02*
Y85092D01*
D15*
X82347Y-7156D02*
Y5843D01*
X47946Y-7156D02*
Y5843D01*
D16*
X-81626Y22355D02*
Y23355D01*
Y25355D02*
Y26355D01*
X-83626Y25355D02*
X-79626D01*
X-83626Y23355D02*
X-79626D01*
D17*
X182423Y114652D02*
Y108304D01*
X186656Y114652D02*
Y108304D01*
X182423Y111629D02*
X186656D01*
X188409Y113443D02*
X189014Y113745D01*
X189921Y114652D01*
Y108304D01*
X196995Y112536D02*
X196693Y111629D01*
X196088Y111024D01*
X195181Y110722D01*
X194879D01*
X193972Y111024D01*
X193367Y111629D01*
X193065Y112536D01*
Y112838D01*
X193367Y113745D01*
X193972Y114350D01*
X194879Y114652D01*
X195181D01*
X196088Y114350D01*
X196693Y113745D01*
X196995Y112536D01*
Y111024D01*
X196693Y109513D01*
X196088Y108606D01*
X195181Y108304D01*
X194577D01*
X193670Y108606D01*
X193367Y109211D01*
X198718Y114652D02*
Y108304D01*
Y114652D02*
X201439D01*
X202346Y114350D01*
X202649Y114048D01*
X202951Y113443D01*
Y112838D01*
X202649Y112234D01*
X202346Y111931D01*
X201439Y111629D01*
X198718D01*
X200835D02*
X202951Y108304D01*
X204372Y113443D02*
X204976Y113745D01*
X205883Y114652D01*
Y108304D01*
X2389Y40133D02*
Y35054D01*
X4928D01*
X5774Y35901D01*
Y36747D01*
X4928Y37594D01*
X2389D01*
X4928D01*
X5774Y38440D01*
Y39286D01*
X4928Y40133D01*
X2389D01*
X7467Y35054D02*
X9160D01*
X8314D01*
Y40133D01*
X7467Y39286D01*
X219227Y117307D02*
X218380Y118153D01*
X216688D01*
X215841Y117307D01*
Y113921D01*
X216688Y113075D01*
X218380D01*
X219227Y113921D01*
X220919Y117307D02*
X221766Y118153D01*
X223459D01*
X224305Y117307D01*
Y116461D01*
X223459Y115614D01*
X224305Y114768D01*
Y113921D01*
X223459Y113075D01*
X221766D01*
X220919Y113921D01*
Y114768D01*
X221766Y115614D01*
X220919Y116461D01*
Y117307D01*
X221766Y115614D02*
X223459D01*
X59770Y-74528D02*
Y-71142D01*
X58923Y-70296D01*
X57231D01*
X56384Y-71142D01*
Y-74528D01*
X57231Y-75374D01*
X58923D01*
X58077Y-73681D02*
X59770Y-75374D01*
X58923D02*
X59770Y-74528D01*
X61462Y-70296D02*
X64848D01*
Y-71142D01*
X61462Y-74528D01*
Y-75374D01*
X192650Y-28623D02*
Y-25238D01*
X191803Y-24391D01*
X190111D01*
X189264Y-25238D01*
Y-28623D01*
X190111Y-29470D01*
X191803D01*
X190957Y-27777D02*
X192650Y-29470D01*
X191803D02*
X192650Y-28623D01*
X197728Y-29470D02*
X194343D01*
X197728Y-26084D01*
Y-25238D01*
X196882Y-24391D01*
X195189D01*
X194343Y-25238D01*
X142820Y-27717D02*
Y-24332D01*
X141973Y-23485D01*
X140281D01*
X139434Y-24332D01*
Y-27717D01*
X140281Y-28564D01*
X141973D01*
X141127Y-26871D02*
X142820Y-28564D01*
X141973D02*
X142820Y-27717D01*
X147898Y-23485D02*
X144513D01*
Y-26024D01*
X146205Y-25178D01*
X147052D01*
X147898Y-26024D01*
Y-27717D01*
X147052Y-28564D01*
X145359D01*
X144513Y-27717D01*
X86890Y-26811D02*
Y-23426D01*
X86044Y-22579D01*
X84351D01*
X83504Y-23426D01*
Y-26811D01*
X84351Y-27658D01*
X86044D01*
X85197Y-25965D02*
X86890Y-27658D01*
X86044D02*
X86890Y-26811D01*
X88583Y-27658D02*
X90276D01*
X89429D01*
Y-22579D01*
X88583Y-23426D01*
X64299Y58630D02*
Y63709D01*
X66838D01*
X67685Y62862D01*
Y61170D01*
X66838Y60323D01*
X64299D01*
X65992D02*
X67685Y58630D01*
X69378Y62862D02*
X70224Y63709D01*
X71917D01*
X72763Y62862D01*
Y62016D01*
X71917Y61170D01*
X72763Y60323D01*
Y59477D01*
X71917Y58630D01*
X70224D01*
X69378Y59477D01*
Y60323D01*
X70224Y61170D01*
X69378Y62016D01*
Y62862D01*
X70224Y61170D02*
X71917D01*
X67647Y39029D02*
X66801Y39875D01*
X65108D01*
X64262Y39029D01*
Y35643D01*
X65108Y34797D01*
X66801D01*
X67647Y35643D01*
X69340Y39875D02*
X72726D01*
Y39029D01*
X69340Y35643D01*
Y34797D01*
X77925Y57545D02*
Y62623D01*
X80464D01*
X81311Y61777D01*
Y60084D01*
X80464Y59237D01*
X77925D01*
X79618D02*
X81311Y57545D01*
X83004Y62623D02*
X86389D01*
Y61777D01*
X83004Y58391D01*
Y57545D01*
X48626Y58192D02*
Y63270D01*
X51165D01*
X52011Y62424D01*
Y60731D01*
X51165Y59885D01*
X48626D01*
X50319D02*
X52011Y58192D01*
X53704Y59038D02*
X54551Y58192D01*
X56243D01*
X57090Y59038D01*
Y62424D01*
X56243Y63270D01*
X54551D01*
X53704Y62424D01*
Y61578D01*
X54551Y60731D01*
X57090D01*
X-275336Y4960D02*
X-273159D01*
X-272434Y5202D01*
X-272192Y5443D01*
X-271950Y5927D01*
Y6653D01*
X-272192Y7136D01*
X-272434Y7378D01*
X-273159Y7620D01*
X-275336D01*
Y2541D01*
X-267911Y7620D02*
X-270330D01*
X-270571Y5443D01*
X-270330Y5685D01*
X-269604Y5927D01*
X-268878D01*
X-268153Y5685D01*
X-267669Y5202D01*
X-267427Y4476D01*
Y3992D01*
X-267669Y3267D01*
X-268153Y2783D01*
X-268878Y2541D01*
X-269604D01*
X-270330Y2783D01*
X-270571Y3025D01*
X-270813Y3508D01*
X43434Y24381D02*
Y23535D01*
X45127Y21842D01*
X46819Y23535D01*
Y24381D01*
X45127Y21842D02*
Y19303D01*
X48512D02*
X50205D01*
X49359D01*
Y24381D01*
X48512Y23535D01*
X260179Y-13125D02*
Y-9739D01*
X259333Y-8893D01*
X257640D01*
X256794Y-9739D01*
Y-13125D01*
X257640Y-13971D01*
X259333D01*
X258487Y-12278D02*
X260179Y-13971D01*
X259333D02*
X260179Y-13125D01*
X261872Y-9739D02*
X262719Y-8893D01*
X264411D01*
X265258Y-9739D01*
Y-10586D01*
X264411Y-11432D01*
X263565D01*
X264411D01*
X265258Y-12278D01*
Y-13125D01*
X264411Y-13971D01*
X262719D01*
X261872Y-13125D01*
X162897Y-84245D02*
Y-80859D01*
X162051Y-80013D01*
X160358D01*
X159512Y-80859D01*
Y-84245D01*
X160358Y-85091D01*
X162051D01*
X161205Y-83398D02*
X162897Y-85091D01*
X162051D02*
X162897Y-84245D01*
X164590D02*
X165437Y-85091D01*
X167129D01*
X167976Y-84245D01*
Y-80859D01*
X167129Y-80013D01*
X165437D01*
X164590Y-80859D01*
Y-81706D01*
X165437Y-82552D01*
X167976D01*
X41745Y-23297D02*
Y-19911D01*
X40899Y-19065D01*
X39206D01*
X38359Y-19911D01*
Y-23297D01*
X39206Y-24143D01*
X40899D01*
X40052Y-22450D02*
X41745Y-24143D01*
X40899D02*
X41745Y-23297D01*
X45977Y-24143D02*
Y-19065D01*
X43438Y-21604D01*
X46823D01*
X98204Y-87697D02*
Y-82619D01*
X100743D01*
X101589Y-83465D01*
Y-85158D01*
X100743Y-86004D01*
X98204D01*
X99897D02*
X101589Y-87697D01*
X106668D02*
X103282D01*
X106668Y-84312D01*
Y-83465D01*
X105822Y-82619D01*
X104129D01*
X103282Y-83465D01*
X108361D02*
X109207Y-82619D01*
X110900D01*
X111746Y-83465D01*
Y-86851D01*
X110900Y-87697D01*
X109207D01*
X108361Y-86851D01*
Y-83465D01*
X247860Y27442D02*
Y32520D01*
X250399D01*
X251246Y31674D01*
Y29981D01*
X250399Y29135D01*
X247860D01*
X249553D02*
X251246Y27442D01*
X252938D02*
X254631D01*
X253785D01*
Y32520D01*
X252938Y31674D01*
X257170D02*
X258017Y32520D01*
X259710D01*
X260556Y31674D01*
Y30828D01*
X259710Y29981D01*
X260556Y29135D01*
Y28288D01*
X259710Y27442D01*
X258017D01*
X257170Y28288D01*
Y29135D01*
X258017Y29981D01*
X257170Y30828D01*
Y31674D01*
X258017Y29981D02*
X259710D01*
X202033Y-94864D02*
Y-89786D01*
X204572D01*
X205418Y-90632D01*
Y-92325D01*
X204572Y-93172D01*
X202033D01*
X203725D02*
X205418Y-94864D01*
X210497D02*
X207111D01*
X210497Y-91479D01*
Y-90632D01*
X209650Y-89786D01*
X207957D01*
X207111Y-90632D01*
X212189Y-94864D02*
X213882D01*
X213036D01*
Y-89786D01*
X212189Y-90632D01*
X231507Y-14714D02*
Y-9636D01*
X234046D01*
X234893Y-10482D01*
Y-12175D01*
X234046Y-13021D01*
X231507D01*
X233200D02*
X234893Y-14714D01*
X236586D02*
X238279D01*
X237432D01*
Y-9636D01*
X236586Y-10482D01*
X244203Y-9636D02*
X240818D01*
Y-12175D01*
X242510Y-11329D01*
X243357D01*
X244203Y-12175D01*
Y-13868D01*
X243357Y-14714D01*
X241664D01*
X240818Y-13868D01*
X37934Y-72344D02*
Y-67266D01*
X40473D01*
X41320Y-68112D01*
Y-69805D01*
X40473Y-70651D01*
X37934D01*
X39627D02*
X41320Y-72344D01*
X43012D02*
X44705D01*
X43859D01*
Y-67266D01*
X43012Y-68112D01*
X47245Y-71498D02*
X48091Y-72344D01*
X49784D01*
X50630Y-71498D01*
Y-68112D01*
X49784Y-67266D01*
X48091D01*
X47245Y-68112D01*
Y-68959D01*
X48091Y-69805D01*
X50630D01*
X215066Y50282D02*
Y45203D01*
X212527D01*
X211681Y46050D01*
Y47742D01*
X212527Y48589D01*
X215066D01*
X213373D02*
X211681Y50282D01*
X206602Y45203D02*
X209988D01*
Y47742D01*
X208295Y46896D01*
X207449D01*
X206602Y47742D01*
Y49435D01*
X207449Y50282D01*
X209141D01*
X209988Y49435D01*
X263082Y49349D02*
Y54427D01*
X265621D01*
X266467Y53580D01*
Y51888D01*
X265621Y51041D01*
X263082D01*
X264775D02*
X266467Y49349D01*
X271546D02*
X268160D01*
X271546Y52734D01*
Y53580D01*
X270700Y54427D01*
X269007D01*
X268160Y53580D01*
X276624Y49349D02*
X273239D01*
X276624Y52734D01*
Y53580D01*
X275778Y54427D01*
X274085D01*
X273239Y53580D01*
X-53843Y-26269D02*
Y-31347D01*
X-56382D01*
X-57228Y-30501D01*
Y-28808D01*
X-56382Y-27961D01*
X-53843D01*
X-55535D02*
X-57228Y-26269D01*
X-62306Y-31347D02*
X-60614Y-30501D01*
X-58921Y-28808D01*
Y-27115D01*
X-59767Y-26269D01*
X-61460D01*
X-62306Y-27115D01*
Y-27961D01*
X-61460Y-28808D01*
X-58921D01*
X162771Y-11033D02*
Y-5955D01*
X165310D01*
X166156Y-6801D01*
Y-8494D01*
X165310Y-9340D01*
X162771D01*
X164463D02*
X166156Y-11033D01*
X167849D02*
X169542D01*
X168695D01*
Y-5955D01*
X167849Y-6801D01*
X174620Y-11033D02*
Y-5955D01*
X172081Y-8494D01*
X175466D01*
X210838Y25455D02*
Y30533D01*
X213377D01*
X214224Y29687D01*
Y27994D01*
X213377Y27148D01*
X210838D01*
X212531D02*
X214224Y25455D01*
X215917D02*
X217609D01*
X216763D01*
Y30533D01*
X215917Y29687D01*
X223534Y30533D02*
X221841Y29687D01*
X220149Y27994D01*
Y26302D01*
X220995Y25455D01*
X222688D01*
X223534Y26302D01*
Y27148D01*
X222688Y27994D01*
X220149D01*
X230033Y28817D02*
Y33895D01*
X232572D01*
X233418Y33049D01*
Y31356D01*
X232572Y30510D01*
X230033D01*
X231726D02*
X233418Y28817D01*
X235111D02*
X236804D01*
X235958D01*
Y33895D01*
X235111Y33049D01*
X239343Y33895D02*
X242729D01*
Y33049D01*
X239343Y29663D01*
Y28817D01*
X123728Y-11289D02*
Y-6211D01*
X126267D01*
X127114Y-7057D01*
Y-8750D01*
X126267Y-9597D01*
X123728D01*
X125421D02*
X127114Y-11289D01*
X128807D02*
X130499D01*
X129653D01*
Y-6211D01*
X128807Y-7057D01*
X133039D02*
X133885Y-6211D01*
X135578D01*
X136424Y-7057D01*
Y-7904D01*
X135578Y-8750D01*
X134731D01*
X135578D01*
X136424Y-9597D01*
Y-10443D01*
X135578Y-11289D01*
X133885D01*
X133039Y-10443D01*
X217636Y64686D02*
Y69764D01*
X220175D01*
X221022Y68917D01*
Y67225D01*
X220175Y66378D01*
X217636D01*
X219329D02*
X221022Y64686D01*
X222715D02*
X224407D01*
X223561D01*
Y69764D01*
X222715Y68917D01*
X226947D02*
X227793Y69764D01*
X229486D01*
X230332Y68917D01*
Y65532D01*
X229486Y64686D01*
X227793D01*
X226947Y65532D01*
Y68917D01*
X-97633Y-41569D02*
Y-36490D01*
X-95094D01*
X-94247Y-37337D01*
Y-39030D01*
X-95094Y-39876D01*
X-97633D01*
X-95940D02*
X-94247Y-41569D01*
X-90015D02*
Y-36490D01*
X-92555Y-39030D01*
X-89169D01*
X225635Y-44875D02*
Y-41489D01*
X224789Y-40643D01*
X223096D01*
X222250Y-41489D01*
Y-44875D01*
X223096Y-45721D01*
X224789D01*
X223943Y-44028D02*
X225635Y-45721D01*
X224789D02*
X225635Y-44875D01*
X230714Y-40643D02*
X229021Y-41489D01*
X227328Y-43182D01*
Y-44875D01*
X228175Y-45721D01*
X229867D01*
X230714Y-44875D01*
Y-44028D01*
X229867Y-43182D01*
X227328D01*
X-261843Y67568D02*
X-263536D01*
X-262689D01*
Y63337D01*
X-263536Y62490D01*
X-264382D01*
X-265229Y63337D01*
X-256765Y62490D02*
X-260150D01*
X-256765Y65876D01*
Y66722D01*
X-257611Y67568D01*
X-259304D01*
X-260150Y66722D01*
X123197Y98427D02*
Y94194D01*
X124043Y93348D01*
X125736D01*
X126582Y94194D01*
Y98427D01*
X131660Y93348D02*
X128275D01*
X131660Y96734D01*
Y97580D01*
X130814Y98427D01*
X129121D01*
X128275Y97580D01*
X234274Y99978D02*
Y105056D01*
X236813D01*
X237660Y104210D01*
Y102517D01*
X236813Y101671D01*
X234274D01*
X235967D02*
X237660Y99978D01*
X239352D02*
X241045D01*
X240199D01*
Y105056D01*
X239352Y104210D01*
X246970Y99978D02*
X243584D01*
X246970Y103364D01*
Y104210D01*
X246124Y105056D01*
X244431D01*
X243584Y104210D01*
X259549Y84878D02*
Y89956D01*
X262088D01*
X262934Y89110D01*
Y87417D01*
X262088Y86571D01*
X259549D01*
X261242D02*
X262934Y84878D01*
X264627D02*
X266320D01*
X265474D01*
Y89956D01*
X264627Y89110D01*
X268859Y84878D02*
X270552D01*
X269706D01*
Y89956D01*
X268859Y89110D01*
X117177Y-73577D02*
Y-70191D01*
X116331Y-69345D01*
X114638D01*
X113792Y-70191D01*
Y-73577D01*
X114638Y-74423D01*
X116331D01*
X115485Y-72730D02*
X117177Y-74423D01*
X116331D02*
X117177Y-73577D01*
X118870Y-70191D02*
X119717Y-69345D01*
X121409D01*
X122256Y-70191D01*
Y-71038D01*
X121409Y-71884D01*
X122256Y-72730D01*
Y-73577D01*
X121409Y-74423D01*
X119717D01*
X118870Y-73577D01*
Y-72730D01*
X119717Y-71884D01*
X118870Y-71038D01*
Y-70191D01*
X119717Y-71884D02*
X121409D01*
X68917Y97449D02*
X68071Y98295D01*
X66378D01*
X65532Y97449D01*
Y94063D01*
X66378Y93217D01*
X68071D01*
X68917Y94063D01*
X73996Y98295D02*
X72303Y97449D01*
X70610Y95756D01*
Y94063D01*
X71457Y93217D01*
X73149D01*
X73996Y94063D01*
Y94910D01*
X73149Y95756D01*
X70610D01*
X208363Y100243D02*
X207517Y101089D01*
X205824D01*
X204978Y100243D01*
Y96857D01*
X205824Y96011D01*
X207517D01*
X208363Y96857D01*
X210056D02*
X210903Y96011D01*
X212595D01*
X213442Y96857D01*
Y100243D01*
X212595Y101089D01*
X210903D01*
X210056Y100243D01*
Y99396D01*
X210903Y98550D01*
X213442D01*
X-134620Y-53340D02*
Y-58419D01*
Y-53340D02*
X-132443D01*
X-131718Y-53582D01*
X-131476Y-53824D01*
X-131234Y-54307D01*
Y-54791D01*
X-131476Y-55275D01*
X-131718Y-55517D01*
X-132443Y-55759D01*
X-134620D01*
X-132927D02*
X-131234Y-58419D01*
X-181792Y-54549D02*
X-182034Y-54066D01*
X-182518Y-53582D01*
X-183001Y-53340D01*
X-183969D01*
X-184453Y-53582D01*
X-184936Y-54066D01*
X-185178Y-54549D01*
X-185420Y-55275D01*
Y-56484D01*
X-185178Y-57210D01*
X-184936Y-57693D01*
X-184453Y-58177D01*
X-183969Y-58419D01*
X-183001D01*
X-182518Y-58177D01*
X-182034Y-57693D01*
X-181792Y-57210D01*
X-160020Y-53340D02*
Y-58419D01*
Y-53340D02*
X-158327D01*
X-157601Y-53582D01*
X-157118Y-54066D01*
X-156876Y-54549D01*
X-156634Y-55275D01*
Y-56484D01*
X-156876Y-57210D01*
X-157118Y-57693D01*
X-157601Y-58177D01*
X-158327Y-58419D01*
X-160020D01*
X-92456Y101480D02*
X-90279D01*
X-89554Y101721D01*
X-89312Y101963D01*
X-89070Y102447D01*
Y103173D01*
X-89312Y103656D01*
X-89554Y103898D01*
X-90279Y104140D01*
X-92456D01*
Y99061D01*
X-87691Y102931D02*
Y103173D01*
X-87450Y103656D01*
X-87208Y103898D01*
X-86724Y104140D01*
X-85757D01*
X-85273Y103898D01*
X-85031Y103656D01*
X-84789Y103173D01*
Y102689D01*
X-85031Y102205D01*
X-85515Y101480D01*
X-87933Y99061D01*
X-84547D01*
X-82201Y104140D02*
Y101238D01*
X-83411Y103414D02*
X-80992Y101963D01*
Y103414D02*
X-83411Y101963D01*
X-97536Y-91560D02*
X-95359D01*
X-94634Y-91319D01*
X-94392Y-91077D01*
X-94150Y-90593D01*
Y-89867D01*
X-94392Y-89384D01*
X-94634Y-89142D01*
X-95359Y-88900D01*
X-97536D01*
Y-93979D01*
X-92530Y-88900D02*
X-89869D01*
X-91320Y-90835D01*
X-90595D01*
X-90111Y-91077D01*
X-89869Y-91319D01*
X-89627Y-92044D01*
Y-92528D01*
X-89869Y-93253D01*
X-90353Y-93737D01*
X-91079Y-93979D01*
X-91804D01*
X-92530Y-93737D01*
X-92772Y-93495D01*
X-93013Y-93012D01*
X-239776Y-86480D02*
X-237599D01*
X-236874Y-86238D01*
X-236632Y-85997D01*
X-236390Y-85513D01*
Y-84787D01*
X-236632Y-84304D01*
X-236874Y-84062D01*
X-237599Y-83820D01*
X-239776D01*
Y-88899D01*
X-232835Y-83820D02*
X-235253Y-87206D01*
X-231625D01*
X-232835Y-83820D02*
Y-88899D01*
X-244856Y101480D02*
X-242679D01*
X-241954Y101721D01*
X-241712Y101963D01*
X-241470Y102447D01*
Y103173D01*
X-241712Y103656D01*
X-241954Y103898D01*
X-242679Y104140D01*
X-244856D01*
Y99061D01*
X-240333Y103173D02*
X-239850Y103414D01*
X-239124Y104140D01*
Y99061D01*
D18*
X251637Y94859D02*
X251879Y94375D01*
X252363Y93892D01*
X252846Y93650D01*
X253814D01*
X254298Y93892D01*
X254781Y94375D01*
X255023Y94859D01*
X255265Y95585D01*
Y96794D01*
X255023Y97520D01*
X254781Y98003D01*
X254298Y98487D01*
X253814Y98729D01*
X252846D01*
X252363Y98487D01*
X251879Y98003D01*
X251637Y97520D01*
X249001Y93650D02*
X249727Y93892D01*
X249968Y94375D01*
Y94859D01*
X249727Y95343D01*
X249243Y95585D01*
X248275Y95827D01*
X247550Y96068D01*
X247066Y96552D01*
X246824Y97036D01*
Y97761D01*
X247066Y98245D01*
X247308Y98487D01*
X248034Y98729D01*
X249001D01*
X249727Y98487D01*
X249968Y98245D01*
X250210Y97761D01*
Y97036D01*
X249968Y96552D01*
X249485Y96068D01*
X248759Y95827D01*
X247792Y95585D01*
X247308Y95343D01*
X247066Y94859D01*
Y94375D01*
X247308Y93892D01*
X248034Y93650D01*
X249001D01*
X101444Y9936D02*
X101686Y9452D01*
X102170Y8968D01*
X102653Y8727D01*
X103621D01*
X104104Y8968D01*
X104588Y9452D01*
X104830Y9936D01*
X105072Y10661D01*
Y11871D01*
X104830Y12596D01*
X104588Y13080D01*
X104104Y13564D01*
X103621Y13806D01*
X102653D01*
X102170Y13564D01*
X101686Y13080D01*
X101444Y12596D01*
X96631Y8727D02*
X99050Y13806D01*
X100017Y8727D02*
X96631D01*
X102477Y68284D02*
X102718Y67800D01*
X103202Y67316D01*
X103686Y67075D01*
X104653D01*
X105137Y67316D01*
X105620Y67800D01*
X105862Y68284D01*
X106104Y69009D01*
Y70219D01*
X105862Y70944D01*
X105620Y71428D01*
X105137Y71912D01*
X104653Y72154D01*
X103686D01*
X103202Y71912D01*
X102718Y71428D01*
X102477Y70944D01*
X98147Y67800D02*
X98389Y67316D01*
X99115Y67075D01*
X99598D01*
X100324Y67316D01*
X100808Y68042D01*
X101049Y69251D01*
Y70461D01*
X100808Y71428D01*
X100324Y71912D01*
X99598Y72154D01*
X99357D01*
X98631Y71912D01*
X98147Y71428D01*
X97905Y70702D01*
Y70461D01*
X98147Y69735D01*
X98631Y69251D01*
X99357Y69009D01*
X99598D01*
X100324Y69251D01*
X100808Y69735D01*
X101049Y70461D01*
X241973Y71001D02*
X242215Y70518D01*
X242699Y70034D01*
X243182Y69792D01*
X244150D01*
X244633Y70034D01*
X245117Y70518D01*
X245359Y71001D01*
X245601Y71727D01*
Y72936D01*
X245359Y73661D01*
X245117Y74145D01*
X244633Y74629D01*
X244150Y74871D01*
X243182D01*
X242699Y74629D01*
X242215Y74145D01*
X241973Y73661D01*
X237402Y71485D02*
X237644Y72210D01*
X238128Y72694D01*
X238853Y72936D01*
X239095D01*
X239821Y72694D01*
X240304Y72210D01*
X240546Y71485D01*
Y71243D01*
X240304Y70518D01*
X239821Y70034D01*
X239095Y69792D01*
X238853D01*
X238128Y70034D01*
X237644Y70518D01*
X237402Y71485D01*
Y72694D01*
X237644Y73903D01*
X238128Y74629D01*
X238853Y74871D01*
X239337D01*
X240062Y74629D01*
X240304Y74145D01*
D19*
X162561Y-62492D02*
Y-59107D01*
X161715Y-58260D01*
X160022D01*
X159175Y-59107D01*
Y-62492D01*
X160022Y-63339D01*
X161715D01*
X160868Y-61646D02*
X162561Y-63339D01*
X161715D02*
X162561Y-62492D01*
X167639Y-63339D02*
X164254D01*
X167639Y-59953D01*
Y-59107D01*
X166793Y-58260D01*
X165100D01*
X164254Y-59107D01*
X74874Y-56586D02*
Y-53201D01*
X74027Y-52354D01*
X72334D01*
X71488Y-53201D01*
Y-56586D01*
X72334Y-57433D01*
X74027D01*
X73181Y-55740D02*
X74874Y-57433D01*
X74027D02*
X74874Y-56586D01*
X76567Y-57433D02*
X78259D01*
X77413D01*
Y-52354D01*
X76567Y-53201D01*
X241383Y-48902D02*
Y-45517D01*
X240536Y-44670D01*
X238844D01*
X237997Y-45517D01*
Y-48902D01*
X238844Y-49749D01*
X240536D01*
X239690Y-48056D02*
X241383Y-49749D01*
X240536D02*
X241383Y-48902D01*
X243076Y-45517D02*
X243922Y-44670D01*
X245615D01*
X246461Y-45517D01*
Y-46363D01*
X245615Y-47209D01*
X244768D01*
X245615D01*
X246461Y-48056D01*
Y-48902D01*
X245615Y-49749D01*
X243922D01*
X243076Y-48902D01*
X117915Y41674D02*
Y37442D01*
X118762Y36595D01*
X120454D01*
X121301Y37442D01*
Y41674D01*
X126379Y36595D02*
X122994D01*
X126379Y39981D01*
Y40827D01*
X125533Y41674D01*
X123840D01*
X122994Y40827D01*
X111375Y84366D02*
X114761Y80980D01*
X111375D02*
X114761Y84366D01*
X111375Y82673D02*
X114761D01*
X113068Y80980D02*
Y84366D01*
X272115Y-67920D02*
X272356Y-68162D01*
X272115Y-68404D01*
X271873Y-68162D01*
Y-67920D01*
X272115Y-67436D01*
X272356Y-67194D01*
X273082Y-66953D01*
X274049D01*
X274775Y-67194D01*
X275017Y-67678D01*
Y-68404D01*
X274775Y-68888D01*
X274049Y-69129D01*
X273324D01*
X274049Y-66953D02*
X274533Y-67194D01*
X274775Y-67678D01*
Y-68404D01*
X274533Y-68888D01*
X274049Y-69129D01*
X274533Y-69371D01*
X275017Y-69855D01*
X275259Y-70339D01*
Y-71064D01*
X275017Y-71548D01*
X274775Y-71790D01*
X274049Y-72032D01*
X273082D01*
X272356Y-71790D01*
X272115Y-71548D01*
X271873Y-71064D01*
Y-70822D01*
X272115Y-70581D01*
X272356Y-70822D01*
X272115Y-71064D01*
X274775Y-69613D02*
X275017Y-70339D01*
Y-71064D01*
X274775Y-71548D01*
X274533Y-71790D01*
X274049Y-72032D01*
X276492Y-66953D02*
X278185Y-72032D01*
X276734Y-66953D02*
X278185Y-71306D01*
X279878Y-66953D02*
X278185Y-72032D01*
X276008Y-66953D02*
X277460D01*
X278911D02*
X280362D01*
X281257Y-67920D02*
X281499Y-68162D01*
X281257Y-68404D01*
X281015Y-68162D01*
Y-67920D01*
X281257Y-67436D01*
X281499Y-67194D01*
X282224Y-66953D01*
X283192D01*
X283917Y-67194D01*
X284159Y-67678D01*
Y-68404D01*
X283917Y-68888D01*
X283192Y-69129D01*
X282466D01*
X283192Y-66953D02*
X283675Y-67194D01*
X283917Y-67678D01*
Y-68404D01*
X283675Y-68888D01*
X283192Y-69129D01*
X283675Y-69371D01*
X284159Y-69855D01*
X284401Y-70339D01*
Y-71064D01*
X284159Y-71548D01*
X283917Y-71790D01*
X283192Y-72032D01*
X282224D01*
X281499Y-71790D01*
X281257Y-71548D01*
X281015Y-71064D01*
Y-70822D01*
X281257Y-70581D01*
X281499Y-70822D01*
X281257Y-71064D01*
X283917Y-69613D02*
X284159Y-70339D01*
Y-71064D01*
X283917Y-71548D01*
X283675Y-71790D01*
X283192Y-72032D01*
X276512Y64463D02*
X276754Y64221D01*
X276512Y63979D01*
X276270Y64221D01*
Y64463D01*
X276512Y64946D01*
X276754Y65188D01*
X277479Y65430D01*
X278447D01*
X279172Y65188D01*
X279414Y64705D01*
Y63979D01*
X279172Y63495D01*
X278447Y63253D01*
X277721D01*
X278447Y65430D02*
X278930Y65188D01*
X279172Y64705D01*
Y63979D01*
X278930Y63495D01*
X278447Y63253D01*
X278930Y63012D01*
X279414Y62528D01*
X279656Y62044D01*
Y61319D01*
X279414Y60835D01*
X279172Y60593D01*
X278447Y60351D01*
X277479D01*
X276754Y60593D01*
X276512Y60835D01*
X276270Y61319D01*
Y61561D01*
X276512Y61802D01*
X276754Y61561D01*
X276512Y61319D01*
X279172Y62770D02*
X279414Y62044D01*
Y61319D01*
X279172Y60835D01*
X278930Y60593D01*
X278447Y60351D01*
X280889Y65430D02*
X282582Y60351D01*
X281131Y65430D02*
X282582Y61077D01*
X284275Y65430D02*
X282582Y60351D01*
X280406Y65430D02*
X281857D01*
X283308D02*
X284759D01*
X285654Y64463D02*
X285896Y64221D01*
X285654Y63979D01*
X285412Y64221D01*
Y64463D01*
X285654Y64946D01*
X285896Y65188D01*
X286621Y65430D01*
X287589D01*
X288314Y65188D01*
X288556Y64705D01*
Y63979D01*
X288314Y63495D01*
X287589Y63253D01*
X286863D01*
X287589Y65430D02*
X288072Y65188D01*
X288314Y64705D01*
Y63979D01*
X288072Y63495D01*
X287589Y63253D01*
X288072Y63012D01*
X288556Y62528D01*
X288798Y62044D01*
Y61319D01*
X288556Y60835D01*
X288314Y60593D01*
X287589Y60351D01*
X286621D01*
X285896Y60593D01*
X285654Y60835D01*
X285412Y61319D01*
Y61561D01*
X285654Y61802D01*
X285896Y61561D01*
X285654Y61319D01*
X288314Y62770D02*
X288556Y62044D01*
Y61319D01*
X288314Y60835D01*
X288072Y60593D01*
X287589Y60351D01*
X139688Y-143969D02*
X139930Y-144211D01*
X139688Y-144453D01*
X139446Y-144211D01*
Y-143969D01*
X139688Y-143486D01*
X139930Y-143244D01*
X140655Y-143002D01*
X141623D01*
X142348Y-143244D01*
X142590Y-143728D01*
Y-144453D01*
X142348Y-144937D01*
X141623Y-145179D01*
X140897D01*
X141623Y-143002D02*
X142106Y-143244D01*
X142348Y-143728D01*
Y-144453D01*
X142106Y-144937D01*
X141623Y-145179D01*
X142106Y-145421D01*
X142590Y-145904D01*
X142832Y-146388D01*
Y-147114D01*
X142590Y-147597D01*
X142348Y-147839D01*
X141623Y-148081D01*
X140655D01*
X139930Y-147839D01*
X139688Y-147597D01*
X139446Y-147114D01*
Y-146872D01*
X139688Y-146630D01*
X139930Y-146872D01*
X139688Y-147114D01*
X142348Y-145662D02*
X142590Y-146388D01*
Y-147114D01*
X142348Y-147597D01*
X142106Y-147839D01*
X141623Y-148081D01*
X144065Y-143002D02*
X145758Y-148081D01*
X144307Y-143002D02*
X145758Y-147355D01*
X147451Y-143002D02*
X145758Y-148081D01*
X143582Y-143002D02*
X145033D01*
X146484D02*
X147935D01*
X148830Y-143969D02*
X149072Y-144211D01*
X148830Y-144453D01*
X148588Y-144211D01*
Y-143969D01*
X148830Y-143486D01*
X149072Y-143244D01*
X149797Y-143002D01*
X150765D01*
X151490Y-143244D01*
X151732Y-143728D01*
Y-144453D01*
X151490Y-144937D01*
X150765Y-145179D01*
X150039D01*
X150765Y-143002D02*
X151248Y-143244D01*
X151490Y-143728D01*
Y-144453D01*
X151248Y-144937D01*
X150765Y-145179D01*
X151248Y-145421D01*
X151732Y-145904D01*
X151974Y-146388D01*
Y-147114D01*
X151732Y-147597D01*
X151490Y-147839D01*
X150765Y-148081D01*
X149797D01*
X149072Y-147839D01*
X148830Y-147597D01*
X148588Y-147114D01*
Y-146872D01*
X148830Y-146630D01*
X149072Y-146872D01*
X148830Y-147114D01*
X151490Y-145662D02*
X151732Y-146388D01*
Y-147114D01*
X151490Y-147597D01*
X151248Y-147839D01*
X150765Y-148081D01*
X139688Y150671D02*
X139930Y150429D01*
X139688Y150187D01*
X139446Y150429D01*
Y150671D01*
X139688Y151154D01*
X139930Y151396D01*
X140655Y151638D01*
X141623D01*
X142348Y151396D01*
X142590Y150912D01*
Y150187D01*
X142348Y149703D01*
X141623Y149461D01*
X140897D01*
X141623Y151638D02*
X142106Y151396D01*
X142348Y150912D01*
Y150187D01*
X142106Y149703D01*
X141623Y149461D01*
X142106Y149220D01*
X142590Y148736D01*
X142832Y148252D01*
Y147527D01*
X142590Y147043D01*
X142348Y146801D01*
X141623Y146559D01*
X140655D01*
X139930Y146801D01*
X139688Y147043D01*
X139446Y147527D01*
Y147768D01*
X139688Y148010D01*
X139930Y147768D01*
X139688Y147527D01*
X142348Y148978D02*
X142590Y148252D01*
Y147527D01*
X142348Y147043D01*
X142106Y146801D01*
X141623Y146559D01*
X144065Y151638D02*
X145758Y146559D01*
X144307Y151638D02*
X145758Y147285D01*
X147451Y151638D02*
X145758Y146559D01*
X143582Y151638D02*
X145033D01*
X146484D02*
X147935D01*
X148830Y150671D02*
X149072Y150429D01*
X148830Y150187D01*
X148588Y150429D01*
Y150671D01*
X148830Y151154D01*
X149072Y151396D01*
X149797Y151638D01*
X150765D01*
X151490Y151396D01*
X151732Y150912D01*
Y150187D01*
X151490Y149703D01*
X150765Y149461D01*
X150039D01*
X150765Y151638D02*
X151248Y151396D01*
X151490Y150912D01*
Y150187D01*
X151248Y149703D01*
X150765Y149461D01*
X151248Y149220D01*
X151732Y148736D01*
X151974Y148252D01*
Y147527D01*
X151732Y147043D01*
X151490Y146801D01*
X150765Y146559D01*
X149797D01*
X149072Y146801D01*
X148830Y147043D01*
X148588Y147527D01*
Y147768D01*
X148830Y148010D01*
X149072Y147768D01*
X148830Y147527D01*
X151490Y148978D02*
X151732Y148252D01*
Y147527D01*
X151490Y147043D01*
X151248Y146801D01*
X150765Y146559D01*
X-12712Y-57609D02*
X-12470Y-57851D01*
X-12712Y-58093D01*
X-12954Y-57851D01*
Y-57609D01*
X-12712Y-57126D01*
X-12470Y-56884D01*
X-11745Y-56642D01*
X-10777D01*
X-10052Y-56884D01*
X-9810Y-57368D01*
Y-58093D01*
X-10052Y-58577D01*
X-10777Y-58819D01*
X-11503D01*
X-10777Y-56642D02*
X-10294Y-56884D01*
X-10052Y-57368D01*
Y-58093D01*
X-10294Y-58577D01*
X-10777Y-58819D01*
X-10294Y-59061D01*
X-9810Y-59544D01*
X-9568Y-60028D01*
Y-60753D01*
X-9810Y-61237D01*
X-10052Y-61479D01*
X-10777Y-61721D01*
X-11745D01*
X-12470Y-61479D01*
X-12712Y-61237D01*
X-12954Y-60753D01*
Y-60512D01*
X-12712Y-60270D01*
X-12470Y-60512D01*
X-12712Y-60753D01*
X-10052Y-59302D02*
X-9810Y-60028D01*
Y-60753D01*
X-10052Y-61237D01*
X-10294Y-61479D01*
X-10777Y-61721D01*
X-8335Y-56642D02*
X-6642Y-61721D01*
X-8093Y-56642D02*
X-6642Y-60995D01*
X-4949Y-56642D02*
X-6642Y-61721D01*
X-8818Y-56642D02*
X-7367D01*
X-5916D02*
X-4465D01*
X-3570Y-57609D02*
X-3328Y-57851D01*
X-3570Y-58093D01*
X-3812Y-57851D01*
Y-57609D01*
X-3570Y-57126D01*
X-3328Y-56884D01*
X-2603Y-56642D01*
X-1635D01*
X-910Y-56884D01*
X-668Y-57368D01*
Y-58093D01*
X-910Y-58577D01*
X-1635Y-58819D01*
X-2361D01*
X-1635Y-56642D02*
X-1152Y-56884D01*
X-910Y-57368D01*
Y-58093D01*
X-1152Y-58577D01*
X-1635Y-58819D01*
X-1152Y-59061D01*
X-668Y-59544D01*
X-426Y-60028D01*
Y-60753D01*
X-668Y-61237D01*
X-910Y-61479D01*
X-1635Y-61721D01*
X-2603D01*
X-3328Y-61479D01*
X-3570Y-61237D01*
X-3812Y-60753D01*
Y-60512D01*
X-3570Y-60270D01*
X-3328Y-60512D01*
X-3570Y-60753D01*
X-910Y-59302D02*
X-668Y-60028D01*
Y-60753D01*
X-910Y-61237D01*
X-1152Y-61479D01*
X-1635Y-61721D01*
X-7632Y64311D02*
X-7390Y64069D01*
X-7632Y63827D01*
X-7874Y64069D01*
Y64311D01*
X-7632Y64794D01*
X-7390Y65036D01*
X-6665Y65278D01*
X-5697D01*
X-4972Y65036D01*
X-4730Y64552D01*
Y63827D01*
X-4972Y63343D01*
X-5697Y63101D01*
X-6423D01*
X-5697Y65278D02*
X-5214Y65036D01*
X-4972Y64552D01*
Y63827D01*
X-5214Y63343D01*
X-5697Y63101D01*
X-5214Y62860D01*
X-4730Y62376D01*
X-4488Y61892D01*
Y61167D01*
X-4730Y60683D01*
X-4972Y60441D01*
X-5697Y60199D01*
X-6665D01*
X-7390Y60441D01*
X-7632Y60683D01*
X-7874Y61167D01*
Y61408D01*
X-7632Y61650D01*
X-7390Y61408D01*
X-7632Y61167D01*
X-4972Y62618D02*
X-4730Y61892D01*
Y61167D01*
X-4972Y60683D01*
X-5214Y60441D01*
X-5697Y60199D01*
X-3255Y65278D02*
X-1562Y60199D01*
X-3013Y65278D02*
X-1562Y60925D01*
X131Y65278D02*
X-1562Y60199D01*
X-3738Y65278D02*
X-2287D01*
X-836D02*
X615D01*
X1510Y64311D02*
X1752Y64069D01*
X1510Y63827D01*
X1268Y64069D01*
Y64311D01*
X1510Y64794D01*
X1752Y65036D01*
X2477Y65278D01*
X3445D01*
X4170Y65036D01*
X4412Y64552D01*
Y63827D01*
X4170Y63343D01*
X3445Y63101D01*
X2719D01*
X3445Y65278D02*
X3928Y65036D01*
X4170Y64552D01*
Y63827D01*
X3928Y63343D01*
X3445Y63101D01*
X3928Y62860D01*
X4412Y62376D01*
X4654Y61892D01*
Y61167D01*
X4412Y60683D01*
X4170Y60441D01*
X3445Y60199D01*
X2477D01*
X1752Y60441D01*
X1510Y60683D01*
X1268Y61167D01*
Y61408D01*
X1510Y61650D01*
X1752Y61408D01*
X1510Y61167D01*
X4170Y62618D02*
X4412Y61892D01*
Y61167D01*
X4170Y60683D01*
X3928Y60441D01*
X3445Y60199D01*
X-160032Y150671D02*
X-159790Y150429D01*
X-160032Y150187D01*
X-160274Y150429D01*
Y150671D01*
X-160032Y151154D01*
X-159790Y151396D01*
X-159065Y151638D01*
X-158097D01*
X-157372Y151396D01*
X-157130Y150912D01*
Y150187D01*
X-157372Y149703D01*
X-158097Y149461D01*
X-158823D01*
X-158097Y151638D02*
X-157614Y151396D01*
X-157372Y150912D01*
Y150187D01*
X-157614Y149703D01*
X-158097Y149461D01*
X-157614Y149220D01*
X-157130Y148736D01*
X-156888Y148252D01*
Y147527D01*
X-157130Y147043D01*
X-157372Y146801D01*
X-158097Y146559D01*
X-159065D01*
X-159790Y146801D01*
X-160032Y147043D01*
X-160274Y147527D01*
Y147768D01*
X-160032Y148010D01*
X-159790Y147768D01*
X-160032Y147527D01*
X-157372Y148978D02*
X-157130Y148252D01*
Y147527D01*
X-157372Y147043D01*
X-157614Y146801D01*
X-158097Y146559D01*
X-155655Y151638D02*
X-153962Y146559D01*
X-155413Y151638D02*
X-153962Y147285D01*
X-152269Y151638D02*
X-153962Y146559D01*
X-156138Y151638D02*
X-154687D01*
X-153236D02*
X-151785D01*
X-150890Y150671D02*
X-150648Y150429D01*
X-150890Y150187D01*
X-151132Y150429D01*
Y150671D01*
X-150890Y151154D01*
X-150648Y151396D01*
X-149923Y151638D01*
X-148955D01*
X-148230Y151396D01*
X-147988Y150912D01*
Y150187D01*
X-148230Y149703D01*
X-148955Y149461D01*
X-149681D01*
X-148955Y151638D02*
X-148472Y151396D01*
X-148230Y150912D01*
Y150187D01*
X-148472Y149703D01*
X-148955Y149461D01*
X-148472Y149220D01*
X-147988Y148736D01*
X-147746Y148252D01*
Y147527D01*
X-147988Y147043D01*
X-148230Y146801D01*
X-148955Y146559D01*
X-149923D01*
X-150648Y146801D01*
X-150890Y147043D01*
X-151132Y147527D01*
Y147768D01*
X-150890Y148010D01*
X-150648Y147768D01*
X-150890Y147527D01*
X-148230Y148978D02*
X-147988Y148252D01*
Y147527D01*
X-148230Y147043D01*
X-148472Y146801D01*
X-148955Y146559D01*
X-141720Y-150671D02*
X-141962Y-150429D01*
X-141720Y-150187D01*
X-141478Y-150429D01*
Y-150671D01*
X-141720Y-151154D01*
X-141962Y-151396D01*
X-142687Y-151638D01*
X-143655D01*
X-144380Y-151396D01*
X-144622Y-150912D01*
Y-150187D01*
X-144380Y-149703D01*
X-143655Y-149461D01*
X-142929D01*
X-143655Y-151638D02*
X-144138Y-151396D01*
X-144380Y-150912D01*
Y-150187D01*
X-144138Y-149703D01*
X-143655Y-149461D01*
X-144138Y-149220D01*
X-144622Y-148736D01*
X-144864Y-148252D01*
Y-147527D01*
X-144622Y-147043D01*
X-144380Y-146801D01*
X-143655Y-146559D01*
X-142687D01*
X-141962Y-146801D01*
X-141720Y-147043D01*
X-141478Y-147527D01*
Y-147768D01*
X-141720Y-148010D01*
X-141962Y-147768D01*
X-141720Y-147527D01*
X-144380Y-148978D02*
X-144622Y-148252D01*
Y-147527D01*
X-144380Y-147043D01*
X-144138Y-146801D01*
X-143655Y-146559D01*
X-146097Y-151638D02*
X-147790Y-146559D01*
X-146339Y-151638D02*
X-147790Y-147285D01*
X-149483Y-151638D02*
X-147790Y-146559D01*
X-145614Y-151638D02*
X-147065D01*
X-148516D02*
X-149967D01*
X-150862Y-150671D02*
X-151104Y-150429D01*
X-150862Y-150187D01*
X-150620Y-150429D01*
Y-150671D01*
X-150862Y-151154D01*
X-151104Y-151396D01*
X-151829Y-151638D01*
X-152797D01*
X-153522Y-151396D01*
X-153764Y-150912D01*
Y-150187D01*
X-153522Y-149703D01*
X-152797Y-149461D01*
X-152071D01*
X-152797Y-151638D02*
X-153280Y-151396D01*
X-153522Y-150912D01*
Y-150187D01*
X-153280Y-149703D01*
X-152797Y-149461D01*
X-153280Y-149220D01*
X-153764Y-148736D01*
X-154006Y-148252D01*
Y-147527D01*
X-153764Y-147043D01*
X-153522Y-146801D01*
X-152797Y-146559D01*
X-151829D01*
X-151104Y-146801D01*
X-150862Y-147043D01*
X-150620Y-147527D01*
Y-147768D01*
X-150862Y-148010D01*
X-151104Y-147768D01*
X-150862Y-147527D01*
X-153522Y-148978D02*
X-153764Y-148252D01*
Y-147527D01*
X-153522Y-147043D01*
X-153280Y-146801D01*
X-152797Y-146559D01*
X-276872Y-77929D02*
X-276630Y-78171D01*
X-276872Y-78413D01*
X-277114Y-78171D01*
Y-77929D01*
X-276872Y-77446D01*
X-276630Y-77204D01*
X-275905Y-76962D01*
X-274937D01*
X-274212Y-77204D01*
X-273970Y-77688D01*
Y-78413D01*
X-274212Y-78897D01*
X-274937Y-79139D01*
X-275663D01*
X-274937Y-76962D02*
X-274454Y-77204D01*
X-274212Y-77688D01*
Y-78413D01*
X-274454Y-78897D01*
X-274937Y-79139D01*
X-274454Y-79380D01*
X-273970Y-79864D01*
X-273728Y-80348D01*
Y-81074D01*
X-273970Y-81557D01*
X-274212Y-81799D01*
X-274937Y-82041D01*
X-275905D01*
X-276630Y-81799D01*
X-276872Y-81557D01*
X-277114Y-81074D01*
Y-80832D01*
X-276872Y-80590D01*
X-276630Y-80832D01*
X-276872Y-81074D01*
X-274212Y-79622D02*
X-273970Y-80348D01*
Y-81074D01*
X-274212Y-81557D01*
X-274454Y-81799D01*
X-274937Y-82041D01*
X-272495Y-76962D02*
X-270802Y-82041D01*
X-272253Y-76962D02*
X-270802Y-81315D01*
X-269109Y-76962D02*
X-270802Y-82041D01*
X-272978Y-76962D02*
X-271527D01*
X-270076D02*
X-268625D01*
X-267730Y-77929D02*
X-267488Y-78171D01*
X-267730Y-78413D01*
X-267972Y-78171D01*
Y-77929D01*
X-267730Y-77446D01*
X-267488Y-77204D01*
X-266763Y-76962D01*
X-265795D01*
X-265070Y-77204D01*
X-264828Y-77688D01*
Y-78413D01*
X-265070Y-78897D01*
X-265795Y-79139D01*
X-266521D01*
X-265795Y-76962D02*
X-265312Y-77204D01*
X-265070Y-77688D01*
Y-78413D01*
X-265312Y-78897D01*
X-265795Y-79139D01*
X-265312Y-79380D01*
X-264828Y-79864D01*
X-264586Y-80348D01*
Y-81074D01*
X-264828Y-81557D01*
X-265070Y-81799D01*
X-265795Y-82041D01*
X-266763D01*
X-267488Y-81799D01*
X-267730Y-81557D01*
X-267972Y-81074D01*
Y-80832D01*
X-267730Y-80590D01*
X-267488Y-80832D01*
X-267730Y-81074D01*
X-265070Y-79622D02*
X-264828Y-80348D01*
Y-81074D01*
X-265070Y-81557D01*
X-265312Y-81799D01*
X-265795Y-82041D01*
X-276147Y67044D02*
X-275905Y67286D01*
X-275663Y67044D01*
X-275905Y66802D01*
X-276147D01*
X-276630Y67044D01*
X-276872Y67286D01*
X-277114Y68011D01*
Y68979D01*
X-276872Y69704D01*
X-276388Y69946D01*
X-275663D01*
X-275179Y69704D01*
X-274937Y68979D01*
Y68253D01*
X-277114Y68979D02*
X-276872Y69462D01*
X-276388Y69704D01*
X-275663D01*
X-275179Y69462D01*
X-274937Y68979D01*
X-274695Y69462D01*
X-274212Y69946D01*
X-273728Y70188D01*
X-273002D01*
X-272519Y69946D01*
X-272277Y69704D01*
X-272035Y68979D01*
Y68011D01*
X-272277Y67286D01*
X-272519Y67044D01*
X-273002Y66802D01*
X-273244D01*
X-273486Y67044D01*
X-273244Y67286D01*
X-273002Y67044D01*
X-274454Y69704D02*
X-273728Y69946D01*
X-273002D01*
X-272519Y69704D01*
X-272277Y69462D01*
X-272035Y68979D01*
X-277114Y71421D02*
X-272035Y73114D01*
X-277114Y71663D02*
X-272761Y73114D01*
X-277114Y74807D02*
X-272035Y73114D01*
X-277114Y70938D02*
Y72389D01*
Y73840D02*
Y75291D01*
X-276147Y76186D02*
X-275905Y76428D01*
X-275663Y76186D01*
X-275905Y75944D01*
X-276147D01*
X-276630Y76186D01*
X-276872Y76428D01*
X-277114Y77153D01*
Y78121D01*
X-276872Y78846D01*
X-276388Y79088D01*
X-275663D01*
X-275179Y78846D01*
X-274937Y78121D01*
Y77395D01*
X-277114Y78121D02*
X-276872Y78604D01*
X-276388Y78846D01*
X-275663D01*
X-275179Y78604D01*
X-274937Y78121D01*
X-274695Y78604D01*
X-274212Y79088D01*
X-273728Y79330D01*
X-273002D01*
X-272519Y79088D01*
X-272277Y78846D01*
X-272035Y78121D01*
Y77153D01*
X-272277Y76428D01*
X-272519Y76186D01*
X-273002Y75944D01*
X-273244D01*
X-273486Y76186D01*
X-273244Y76428D01*
X-273002Y76186D01*
X-274454Y78846D02*
X-273728Y79088D01*
X-273002D01*
X-272519Y78846D01*
X-272277Y78604D01*
X-272035Y78121D01*
M02*
