M48
;Layer_Color=9474304
;FILE_FORMAT=4:4
METRIC,LZ
;TYPE=PLATED
T01F00S00C0.7112
T02F00S00C0.9000
T03F00S00C1.0200
%
T01
X00183668Y-00137161
X00187706Y-00106173
X00221996Y-00112523
X00211836Y-00087631
X00211373Y-00047685
X00208026Y-00001525
X00197358Y-00010669
X00202184Y00027431
X00205486Y00041147
X00241046Y00027939
X0025654Y00053847
X00277368Y00016001
X00252602Y-00012759
X00166389Y-00000001
X00152908Y00008889
X00131318Y00013207
X00130556Y00033273
X00144526Y00029209
X00171159Y00018033
X0017526Y00039695
X00175262Y0006976
X0016045Y00058527
X00094996Y00038353
X00041656Y00020319
X00021844Y00010667
X00007112Y00034543
X-00030607Y00032892
X-00064008Y00048767
X00028702Y00053339
X00043434Y-00010161
X0002794Y-00068835
X00075946Y-00065969
X00089773Y-00075439
X00107895Y-00071182
X00102852Y-00088355
X00146812Y-00080519
X00174244Y-00086107
X00145796Y-00137161
X00125222Y-00129033
X00119066Y-00051877
X0011008Y-00037344
X-00020574Y-00031243
X-00086614Y-00036069
X-00105918Y-00032005
X-00087771Y-00089446
X-00056153Y-00088939
X-00177976Y-00125714
X-00173083Y-00013848
X-00211836Y-00011177
X-00207518Y-00033021
X-00234442Y-00016765
X-00253492Y-00033782
X-00258493Y0000109
X-00284168Y00038802
X-00233423Y00065023
X-00220735Y00088385
X-00198156Y00110454
X-00175924Y00130301
X-00129794Y00120903
X-00110309Y00104901
X-0011811Y00080263
X00058928Y00079375
X0016062Y00079573
X00177417Y00091483
X00212598Y00116839
X00250783Y00074844
T02
X-00208423Y00022051
X-00233423
T03
X-00179979Y-00093003
X-00154579
X-00129178
M30
